<svg width="24" height="24" viewBox="0 0 24 24" fill="none" xmlns="http://www.w3.org/2000/svg">
<path d="M19.6528 17.3431H4.34808C4.11426 17.3431 3.89581 17.2275 3.76416 17.0344C1.74487 14.0732 1.58997 8.37695 1.57825 7.53137C1.57751 7.49823 1.57715 7.46472 1.57715 7.4314C1.57715 7.04156 1.89282 6.72534 2.28265 6.72461H2.28412C2.67322 6.72461 2.98944 7.03937 2.99091 7.42865C2.99091 7.43341 2.99109 7.47516 2.99274 7.54913C3.05499 9.56018 4.71045 11.1768 6.73633 11.1768C8.80157 11.1768 10.4818 9.49664 10.4818 7.4314C10.4818 7.04102 10.7983 6.72461 11.1885 6.72461H12.8121C13.2025 6.72461 13.5189 7.04102 13.5189 7.4314C13.5189 9.49664 15.1993 11.1768 17.2645 11.1768C19.2922 11.1768 20.9488 9.55725 21.0083 7.54364C21.0096 7.47296 21.0099 7.43341 21.0099 7.42883C21.0114 7.03937 21.3275 6.72461 21.7167 6.72461H21.718C22.1078 6.72534 22.4235 7.04156 22.4235 7.4314C22.4235 7.4649 22.4232 7.49823 22.4226 7.53156C22.4107 8.37695 22.2558 14.0734 20.2367 17.0345C20.105 17.2275 19.8864 17.3431 19.6528 17.3431Z" fill="#FFF780"/>
<path d="M21.7174 6.72461C21.717 6.72461 21.7167 6.72461 21.7161 6.72461C21.327 6.72461 21.0108 7.03937 21.0093 7.42865C21.0093 7.43341 21.0092 7.47296 21.0077 7.54364C20.9482 9.55707 19.2916 11.1768 17.2639 11.1768C15.1987 11.1768 13.5185 9.49664 13.5185 7.4314C13.5185 7.04102 13.2019 6.72461 12.8117 6.72461H12V17.3429H19.6522C19.886 17.3429 20.1044 17.2274 20.2361 17.0344C22.2554 14.0732 22.4103 8.37677 22.422 7.53137C22.4227 7.49823 22.4231 7.46472 22.4231 7.4314C22.4229 7.04156 22.1072 6.72534 21.7174 6.72461Z" fill="#FFC02E"/>
<path d="M12.0005 4.3125C10.7413 4.3125 9.7168 5.33698 9.7168 6.59619C9.7168 7.85541 10.7413 8.8797 12.0005 8.8797C13.2597 8.8797 14.2842 7.85541 14.2842 6.59619C14.2842 5.33698 13.2597 4.3125 12.0005 4.3125Z" fill="#FFC02E"/>
<path d="M12 4.3125V8.87988C13.2592 8.8797 14.2835 7.85541 14.2835 6.59619C14.2835 5.33698 13.259 4.31268 12 4.3125Z" fill="#FFA73B"/>
<path d="M2.28369 6.0752C1.02448 6.0752 0 7.09967 0 8.35889C0 9.6181 1.02448 10.6426 2.28369 10.6426C3.54291 10.6426 4.5672 9.6181 4.5672 8.35889C4.5672 7.09967 3.54291 6.0752 2.28369 6.0752Z" fill="#FFC02E"/>
<path d="M21.7161 6.0752C20.4569 6.0752 19.4326 7.09967 19.4326 8.35889C19.4326 9.61792 20.4569 10.6424 21.7161 10.6424C22.9753 10.6424 23.9998 9.61792 23.9998 8.35889C23.9998 7.09967 22.9753 6.0752 21.7161 6.0752Z" fill="#FFA73B"/>
<path d="M19.6521 19.6612H4.34741C3.95703 19.6612 3.64062 19.3448 3.64062 18.9544V16.8467H20.3589V18.9544C20.3589 19.3448 20.0425 19.6612 19.6521 19.6612Z" fill="#FFC02E"/>
<path d="M12 19.6612H19.6522C20.0425 19.6612 20.3589 19.3448 20.3589 18.9544V16.8467H12V19.6612Z" fill="#FFA73B"/>
</svg>
