<svg width="153" height="153" viewBox="0 0 153 153" fill="none" xmlns="http://www.w3.org/2000/svg">
<g filter="url(#filter0_dii_118_4842)">
<path d="M128.793 76.5C128.793 47.5051 105.334 24 76.3966 24C47.4587 24 24 47.5051 24 76.5C24 105.495 47.4587 129 76.3966 129C105.334 129 128.793 105.495 128.793 76.5Z" fill="url(#paint0_radial_118_4842)"/>
</g>
<mask id="mask0_118_4842" style="mask-type:luminance" maskUnits="userSpaceOnUse" x="40" y="42" width="35" height="35">
<path d="M74.8325 42.0225H40.4229V76.5001H74.8325V42.0225Z" fill="white"/>
</mask>
<g mask="url(#mask0_118_4842)">
<mask id="mask1_118_4842" style="mask-type:alpha" maskUnits="userSpaceOnUse" x="40" y="42" width="35" height="35">
<path fill-rule="evenodd" clip-rule="evenodd" d="M58.0187 42.0225H40.4229V76.5001H74.8325V42.0225H58.0187Z" fill="white"/>
</mask>
<g mask="url(#mask1_118_4842)">
<g filter="url(#filter1_i_118_4842)">
<path d="M59.5828 76.5001C68.005 76.5001 74.8325 69.6591 74.8325 61.2203C74.8325 52.7815 68.005 45.9404 59.5828 45.9404C51.1606 45.9404 44.333 52.7815 44.333 61.2203C44.333 69.6591 51.1606 76.5001 59.5828 76.5001Z" fill="url(#paint1_radial_118_4842)"/>
</g>
<g style="mix-blend-mode:color-dodge">
<path d="M52.1537 60.0452C53.4495 60.0452 54.4998 58.9928 54.4998 57.6945C54.4998 56.3962 53.4495 55.3438 52.1537 55.3438C50.858 55.3438 49.8076 56.3962 49.8076 57.6945C49.8076 58.9928 50.858 60.0452 52.1537 60.0452Z" fill="#D9D9D9"/>
</g>
<path d="M59.9735 66.3131C62.5649 66.3131 64.6657 64.2082 64.6657 61.6116C64.6657 59.0151 62.5649 56.9102 59.9735 56.9102C57.382 56.9102 55.2812 59.0151 55.2812 61.6116C55.2812 64.2082 57.382 66.3131 59.9735 66.3131Z" fill="#29262A"/>
</g>
</g>
<mask id="mask2_118_4842" style="mask-type:luminance" maskUnits="userSpaceOnUse" x="77" y="42" width="36" height="35">
<path d="M112.371 42.0225H77.9609V76.5001H112.371V42.0225Z" fill="white"/>
</mask>
<g mask="url(#mask2_118_4842)">
<mask id="mask3_118_4842" style="mask-type:alpha" maskUnits="userSpaceOnUse" x="77" y="42" width="36" height="35">
<path fill-rule="evenodd" clip-rule="evenodd" d="M90.723 42.0225H77.9609V76.5001H95.1658H112.371V42.0225H100.391C98.8719 42.5308 97.246 42.806 95.5568 42.806C93.8676 42.806 92.2417 42.5308 90.723 42.0225Z" fill="white"/>
</mask>
<g mask="url(#mask3_118_4842)">
<g filter="url(#filter2_i_118_4842)">
<path d="M93.2107 76.5001C101.633 76.5001 108.46 69.6591 108.46 61.2203C108.46 52.7815 101.633 45.9404 93.2107 45.9404C84.7885 45.9404 77.9609 52.7815 77.9609 61.2203C77.9609 69.6591 84.7885 76.5001 93.2107 76.5001Z" fill="url(#paint2_radial_118_4842)"/>
</g>
<g style="mix-blend-mode:color-dodge">
<path d="M88.1274 58.4779C89.4231 58.4779 90.4735 57.4254 90.4735 56.1271C90.4735 54.8288 89.4231 53.7764 88.1274 53.7764C86.8316 53.7764 85.7812 54.8288 85.7812 56.1271C85.7812 57.4254 86.8316 58.4779 88.1274 58.4779Z" fill="#D9D9D9"/>
</g>
<path d="M93.6014 66.3131C96.1929 66.3131 98.2936 64.2082 98.2936 61.6116C98.2936 59.0151 96.1929 56.9102 93.6014 56.9102C91.01 56.9102 88.9092 59.0151 88.9092 61.6116C88.9092 64.2082 91.01 66.3131 93.6014 66.3131Z" fill="#29262A"/>
</g>
</g>
<mask id="mask4_118_4842" style="mask-type:luminance" maskUnits="userSpaceOnUse" x="24" y="76" width="105" height="28">
<path d="M128.793 76.5H24V103.142H128.793V76.5Z" fill="white"/>
</mask>
<g mask="url(#mask4_118_4842)">
<mask id="mask5_118_4842" style="mask-type:alpha" maskUnits="userSpaceOnUse" x="24" y="76" width="105" height="28">
<path d="M115.498 76.5H37.2947C29.9522 76.5 24 82.464 24 89.8209C24 97.1778 29.9522 103.142 37.2947 103.142H115.498C122.841 103.142 128.793 97.1778 128.793 89.8209C128.793 82.464 122.841 76.5 115.498 76.5Z" fill="url(#paint3_linear_118_4842)"/>
</mask>
<g mask="url(#mask5_118_4842)">
<path d="M34.5576 82.7686L40.7678 85.6764C63.2741 96.214 89.3527 95.8677 111.572 84.7353L115.499 82.7686" stroke="#29282B" stroke-width="2" stroke-linecap="round"/>
<path d="M36.5123 79.2433C33.2042 78.7198 30.568 81.9748 31.7606 85.1107L32.2111 86.2955" stroke="#29282B" stroke-width="2" stroke-linecap="round"/>
<path d="M117.453 86.2948C119.642 82.9207 117.225 78.459 113.209 78.459H112.761" stroke="#29282B" stroke-width="2" stroke-linecap="round"/>
</g>
</g>
<defs>
<filter id="filter0_dii_118_4842" x="0" y="0" width="152.793" height="153" filterUnits="userSpaceOnUse" color-interpolation-filters="sRGB">
<feFlood flood-opacity="0" result="BackgroundImageFix"/>
<feColorMatrix in="SourceAlpha" type="matrix" values="0 0 0 0 0 0 0 0 0 0 0 0 0 0 0 0 0 0 127 0" result="hardAlpha"/>
<feOffset/>
<feGaussianBlur stdDeviation="12"/>
<feComposite in2="hardAlpha" operator="out"/>
<feColorMatrix type="matrix" values="0 0 0 0 1 0 0 0 0 0.696667 0 0 0 0 0.241667 0 0 0 0.7 0"/>
<feBlend mode="normal" in2="BackgroundImageFix" result="effect1_dropShadow_118_4842"/>
<feBlend mode="normal" in="SourceGraphic" in2="effect1_dropShadow_118_4842" result="shape"/>
<feColorMatrix in="SourceAlpha" type="matrix" values="0 0 0 0 0 0 0 0 0 0 0 0 0 0 0 0 0 0 127 0" result="hardAlpha"/>
<feOffset dx="-10" dy="10"/>
<feGaussianBlur stdDeviation="6"/>
<feComposite in2="hardAlpha" operator="arithmetic" k2="-1" k3="1"/>
<feColorMatrix type="matrix" values="0 0 0 0 0.180392 0 0 0 0 0.164706 0 0 0 0 0.168627 0 0 0 1 0"/>
<feBlend mode="soft-light" in2="shape" result="effect2_innerShadow_118_4842"/>
<feColorMatrix in="SourceAlpha" type="matrix" values="0 0 0 0 0 0 0 0 0 0 0 0 0 0 0 0 0 0 127 0" result="hardAlpha"/>
<feOffset dx="-10" dy="-18"/>
<feGaussianBlur stdDeviation="6"/>
<feComposite in2="hardAlpha" operator="arithmetic" k2="-1" k3="1"/>
<feColorMatrix type="matrix" values="0 0 0 0 0.8125 0 0 0 0 0.71236 0 0 0 0 0.639844 0 0 0 1 0"/>
<feBlend mode="hard-light" in2="effect2_innerShadow_118_4842" result="effect3_innerShadow_118_4842"/>
</filter>
<filter id="filter1_i_118_4842" x="44.333" y="41.9404" width="32.499" height="34.5596" filterUnits="userSpaceOnUse" color-interpolation-filters="sRGB">
<feFlood flood-opacity="0" result="BackgroundImageFix"/>
<feBlend mode="normal" in="SourceGraphic" in2="BackgroundImageFix" result="shape"/>
<feColorMatrix in="SourceAlpha" type="matrix" values="0 0 0 0 0 0 0 0 0 0 0 0 0 0 0 0 0 0 127 0" result="hardAlpha"/>
<feOffset dx="2" dy="-4"/>
<feGaussianBlur stdDeviation="2"/>
<feComposite in2="hardAlpha" operator="arithmetic" k2="-1" k3="1"/>
<feColorMatrix type="matrix" values="0 0 0 0 0 0 0 0 0 0 0 0 0 0 0 0 0 0 0.1 0"/>
<feBlend mode="normal" in2="shape" result="effect1_innerShadow_118_4842"/>
</filter>
<filter id="filter2_i_118_4842" x="75.9609" y="41.9404" width="32.499" height="34.5596" filterUnits="userSpaceOnUse" color-interpolation-filters="sRGB">
<feFlood flood-opacity="0" result="BackgroundImageFix"/>
<feBlend mode="normal" in="SourceGraphic" in2="BackgroundImageFix" result="shape"/>
<feColorMatrix in="SourceAlpha" type="matrix" values="0 0 0 0 0 0 0 0 0 0 0 0 0 0 0 0 0 0 127 0" result="hardAlpha"/>
<feOffset dx="-2" dy="-4"/>
<feGaussianBlur stdDeviation="2"/>
<feComposite in2="hardAlpha" operator="arithmetic" k2="-1" k3="1"/>
<feColorMatrix type="matrix" values="0 0 0 0 0 0 0 0 0 0 0 0 0 0 0 0 0 0 0.1 0"/>
<feBlend mode="normal" in2="shape" result="effect1_innerShadow_118_4842"/>
</filter>
<radialGradient id="paint0_radial_118_4842" cx="0" cy="0" r="1" gradientUnits="userSpaceOnUse" gradientTransform="translate(76.3966 76.5) rotate(90) scale(52.5 52.3966)">
<stop stop-color="#FFCF30"/>
<stop offset="1" stop-color="#F2C018"/>
</radialGradient>
<radialGradient id="paint1_radial_118_4842" cx="0" cy="0" r="1" gradientUnits="userSpaceOnUse" gradientTransform="translate(59.5828 61.2203) rotate(90) scale(15.2799 15.2497)">
<stop offset="0.71875" stop-color="white"/>
<stop offset="1" stop-color="#DEF7FF"/>
</radialGradient>
<radialGradient id="paint2_radial_118_4842" cx="0" cy="0" r="1" gradientUnits="userSpaceOnUse" gradientTransform="translate(93.2107 61.2203) rotate(90) scale(15.2799 15.2497)">
<stop offset="0.71875" stop-color="white"/>
<stop offset="1" stop-color="#DEF7FF"/>
</radialGradient>
<linearGradient id="paint3_linear_118_4842" x1="76.3966" y1="73.7575" x2="76.3966" y2="103.142" gradientUnits="userSpaceOnUse">
<stop offset="0.0181248" stop-color="#DEF7FF"/>
<stop offset="0.233521" stop-color="white"/>
</linearGradient>
</defs>
</svg>
