<svg width="146" height="153" viewBox="0 0 146 153" fill="none" xmlns="http://www.w3.org/2000/svg">
<g filter="url(#filter0_di_118_4757)">
<path d="M24 72.8931C24 45.8902 45.913 24 72.9433 24C99.9736 24 121.887 45.8902 121.887 72.8931V107.316C121.887 119.292 112.169 129 100.181 129H72.9433H45.7059C33.718 129 24 119.292 24 107.316V72.8931Z" fill="url(#paint0_radial_118_4757)"/>
<path style="mix-blend-mode:overlay" d="M24 72.8931C24 45.8902 45.913 24 72.9433 24C99.9736 24 121.887 45.8902 121.887 72.8931V107.316C121.887 119.292 112.169 129 100.181 129H72.9433H45.7059C33.718 129 24 119.292 24 107.316V72.8931Z" fill="url(#paint1_radial_118_4757)"/>
</g>
<g filter="url(#filter1_f_118_4757)">
<path d="M42.4544 92.1302C47.7719 92.1302 52.0826 87.8239 52.0826 82.5119C52.0826 77.1998 47.7719 72.8936 42.4544 72.8936C37.1369 72.8936 32.8262 77.1998 32.8262 82.5119C32.8262 87.8239 37.1369 92.1302 42.4544 92.1302Z" fill="#FF8EC4"/>
</g>
<g filter="url(#filter2_f_118_4757)">
<path d="M98.6184 92.1302C103.936 92.1302 108.247 87.8239 108.247 82.5119C108.247 77.1998 103.936 72.8936 98.6184 72.8936C93.3009 72.8936 88.9902 77.1998 88.9902 82.5119C88.9902 87.8239 93.3009 92.1302 98.6184 92.1302Z" fill="#FF8EC4"/>
</g>
<g opacity="0.3">
<g filter="url(#filter3_f_118_4757)">
<path d="M96.2111 79.3057C97.0974 79.3057 97.8158 78.588 97.8158 77.7027C97.8158 76.8173 97.0974 76.0996 96.2111 76.0996C95.3249 76.0996 94.6064 76.8173 94.6064 77.7027C94.6064 78.588 95.3249 79.3057 96.2111 79.3057Z" fill="white"/>
</g>
<g filter="url(#filter4_f_118_4757)">
<path d="M102.63 83.3126C103.516 83.3126 104.235 82.5948 104.235 81.7095C104.235 80.8242 103.516 80.1064 102.63 80.1064C101.744 80.1064 101.025 80.8242 101.025 81.7095C101.025 82.5948 101.744 83.3126 102.63 83.3126Z" fill="white"/>
</g>
<g filter="url(#filter5_f_118_4757)">
<path d="M97.8156 88.1221C98.7019 88.1221 99.4203 87.4044 99.4203 86.5191C99.4203 85.6337 98.7019 84.916 97.8156 84.916C96.9294 84.916 96.2109 85.6337 96.2109 86.5191C96.2109 87.4044 96.9294 88.1221 97.8156 88.1221Z" fill="white"/>
</g>
</g>
<g opacity="0.3">
<g filter="url(#filter6_f_118_4757)">
<path d="M44.8615 79.3057C45.7478 79.3057 46.4662 78.588 46.4662 77.7027C46.4662 76.8173 45.7478 76.0996 44.8615 76.0996C43.9753 76.0996 43.2568 76.8173 43.2568 77.7027C43.2568 78.588 43.9753 79.3057 44.8615 79.3057Z" fill="white"/>
</g>
<g filter="url(#filter7_f_118_4757)">
<path d="M38.4426 83.3126C39.3288 83.3126 40.0473 82.5948 40.0473 81.7095C40.0473 80.8242 39.3288 80.1064 38.4426 80.1064C37.5563 80.1064 36.8379 80.8242 36.8379 81.7095C36.8379 82.5948 37.5563 83.3126 38.4426 83.3126Z" fill="white"/>
</g>
<g filter="url(#filter8_f_118_4757)">
<path d="M44.0588 88.1221C44.9451 88.1221 45.6635 87.4044 45.6635 86.5191C45.6635 85.6337 44.9451 84.916 44.0588 84.916C43.1725 84.916 42.4541 85.6337 42.4541 86.5191C42.4541 87.4044 43.1725 88.1221 44.0588 88.1221Z" fill="white"/>
</g>
</g>
<mask id="mask0_118_4757" style="mask-type:luminance" maskUnits="userSpaceOnUse" x="36" y="80" width="74" height="29">
<path d="M109.049 80.9082H36.8379V108.16H109.049V80.9082Z" fill="white"/>
</mask>
<g mask="url(#mask0_118_4757)">
<mask id="mask1_118_4757" style="mask-type:alpha" maskUnits="userSpaceOnUse" x="36" y="80" width="74" height="29">
<path d="M95.4094 80.9082H50.4778C42.9447 80.9082 36.8379 87.0088 36.8379 94.5342C36.8379 102.06 42.9447 108.16 50.4778 108.16H95.4094C102.943 108.16 109.049 102.06 109.049 94.5342C109.049 87.0088 102.943 80.9082 95.4094 80.9082Z" fill="url(#paint2_linear_118_4757)"/>
</mask>
<g mask="url(#mask1_118_4757)">
<path d="M55.292 91.3278C66.1237 101.347 73.746 88.5225 73.746 88.5225C73.746 88.5225 80.566 102.148 91.7989 91.3278" stroke="#29282B" stroke-width="2" stroke-linecap="round" stroke-linejoin="round"/>
</g>
</g>
<mask id="mask2_118_4757" style="mask-type:luminance" maskUnits="userSpaceOnUse" x="36" y="47" width="36" height="36">
<path d="M71.3385 47.2441H36.0352V82.5113H71.3385V47.2441Z" fill="white"/>
</mask>
<g mask="url(#mask2_118_4757)">
<mask id="mask3_118_4757" style="mask-type:alpha" maskUnits="userSpaceOnUse" x="36" y="47" width="36" height="36">
<path fill-rule="evenodd" clip-rule="evenodd" d="M45.2309 47.2441H36.0352V82.5113H71.3385V47.2441H66.1545C63.3824 49.7356 59.7149 51.2518 55.6927 51.2518C51.6705 51.2518 48.003 49.7356 45.2309 47.2441Z" fill="white"/>
</mask>
<g mask="url(#mask3_118_4757)">
<g filter="url(#filter9_i_118_4757)">
<path d="M55.6927 82.5115C64.3336 82.5115 71.3385 75.5138 71.3385 66.8817C71.3385 58.2496 64.3336 51.252 55.6927 51.252C47.0517 51.252 40.0469 58.2496 40.0469 66.8817C40.0469 75.5138 47.0517 82.5115 55.6927 82.5115Z" fill="url(#paint3_radial_118_4757)"/>
</g>
<path d="M56.0934 76.0994C60.9678 76.0994 64.9193 72.152 64.9193 67.2826C64.9193 62.4132 60.9678 58.4658 56.0934 58.4658C51.219 58.4658 47.2676 62.4132 47.2676 67.2826C47.2676 72.152 51.219 76.0994 56.0934 76.0994Z" fill="#29262A"/>
<g style="mix-blend-mode:color-dodge">
<path d="M49.6754 67.2824C52.3342 67.2824 54.4895 65.1292 54.4895 62.4732C54.4895 59.8172 52.3342 57.6641 49.6754 57.6641C47.0167 57.6641 44.8613 59.8172 44.8613 62.4732C44.8613 65.1292 47.0167 67.2824 49.6754 67.2824Z" fill="#D9D9D9"/>
</g>
<g style="mix-blend-mode:color-dodge">
<path d="M59.7041 72.8934C60.8119 72.8934 61.71 71.9962 61.71 70.8896C61.71 69.7829 60.8119 68.8857 59.7041 68.8857C58.5963 68.8857 57.6982 69.7829 57.6982 70.8896C57.6982 71.9962 58.5963 72.8934 59.7041 72.8934Z" fill="#D9D9D9"/>
</g>
</g>
</g>
<mask id="mask4_118_4757" style="mask-type:luminance" maskUnits="userSpaceOnUse" x="74" y="47" width="36" height="36">
<path d="M109.851 47.2441H74.5479V82.5113H109.851V47.2441Z" fill="white"/>
</mask>
<g mask="url(#mask4_118_4757)">
<mask id="mask5_118_4757" style="mask-type:alpha" maskUnits="userSpaceOnUse" x="74" y="47" width="36" height="36">
<path fill-rule="evenodd" clip-rule="evenodd" d="M83.7436 47.2441H74.5479V82.5113H109.851V47.2441H104.667C101.895 49.7356 98.2276 51.2518 94.2054 51.2518C90.1832 51.2518 86.5157 49.7356 83.7436 47.2441Z" fill="white"/>
</mask>
<g mask="url(#mask5_118_4757)">
<g filter="url(#filter10_i_118_4757)">
<path d="M90.1937 82.5115C98.8346 82.5115 105.839 75.5138 105.839 66.8817C105.839 58.2496 98.8346 51.252 90.1937 51.252C81.5527 51.252 74.5479 58.2496 74.5479 66.8817C74.5479 75.5138 81.5527 82.5115 90.1937 82.5115Z" fill="url(#paint4_radial_118_4757)"/>
</g>
<path d="M90.5944 76.0994C95.4688 76.0994 99.4202 72.152 99.4202 67.2826C99.4202 62.4132 95.4688 58.4658 90.5944 58.4658C85.72 58.4658 81.7686 62.4132 81.7686 67.2826C81.7686 72.152 85.72 76.0994 90.5944 76.0994Z" fill="#29262A"/>
<g style="mix-blend-mode:color-dodge">
<path d="M84.9782 67.2824C87.6369 67.2824 89.7923 65.1292 89.7923 62.4732C89.7923 59.8172 87.6369 57.6641 84.9782 57.6641C82.3194 57.6641 80.1641 59.8172 80.1641 62.4732C80.1641 65.1292 82.3194 67.2824 84.9782 67.2824Z" fill="#D9D9D9"/>
</g>
<g style="mix-blend-mode:color-dodge">
<path d="M94.2051 72.8934C95.3129 72.8934 96.211 71.9962 96.211 70.8896C96.211 69.7829 95.3129 68.8857 94.2051 68.8857C93.0973 68.8857 92.1992 69.7829 92.1992 70.8896C92.1992 71.9962 93.0973 72.8934 94.2051 72.8934Z" fill="#D9D9D9"/>
</g>
</g>
</g>
<defs>
<filter id="filter0_di_118_4757" x="0" y="0" width="145.887" height="153" filterUnits="userSpaceOnUse" color-interpolation-filters="sRGB">
<feFlood flood-opacity="0" result="BackgroundImageFix"/>
<feColorMatrix in="SourceAlpha" type="matrix" values="0 0 0 0 0 0 0 0 0 0 0 0 0 0 0 0 0 0 127 0" result="hardAlpha"/>
<feOffset/>
<feGaussianBlur stdDeviation="12"/>
<feComposite in2="hardAlpha" operator="out"/>
<feColorMatrix type="matrix" values="0 0 0 0 0 0 0 0 0 0 0 0 0 0 0 0 0 0 0.2 0"/>
<feBlend mode="normal" in2="BackgroundImageFix" result="effect1_dropShadow_118_4757"/>
<feBlend mode="normal" in="SourceGraphic" in2="effect1_dropShadow_118_4757" result="shape"/>
<feColorMatrix in="SourceAlpha" type="matrix" values="0 0 0 0 0 0 0 0 0 0 0 0 0 0 0 0 0 0 127 0" result="hardAlpha"/>
<feOffset dx="-10" dy="-10"/>
<feGaussianBlur stdDeviation="6"/>
<feComposite in2="hardAlpha" operator="arithmetic" k2="-1" k3="1"/>
<feColorMatrix type="matrix" values="0 0 0 0 0.180392 0 0 0 0 0.164706 0 0 0 0 0.168627 0 0 0 1 0"/>
<feBlend mode="soft-light" in2="shape" result="effect2_innerShadow_118_4757"/>
</filter>
<filter id="filter1_f_118_4757" x="20.8262" y="60.8936" width="43.2568" height="43.2363" filterUnits="userSpaceOnUse" color-interpolation-filters="sRGB">
<feFlood flood-opacity="0" result="BackgroundImageFix"/>
<feBlend mode="normal" in="SourceGraphic" in2="BackgroundImageFix" result="shape"/>
<feGaussianBlur stdDeviation="6" result="effect1_foregroundBlur_118_4757"/>
</filter>
<filter id="filter2_f_118_4757" x="76.9902" y="60.8936" width="43.2568" height="43.2363" filterUnits="userSpaceOnUse" color-interpolation-filters="sRGB">
<feFlood flood-opacity="0" result="BackgroundImageFix"/>
<feBlend mode="normal" in="SourceGraphic" in2="BackgroundImageFix" result="shape"/>
<feGaussianBlur stdDeviation="6" result="effect1_foregroundBlur_118_4757"/>
</filter>
<filter id="filter3_f_118_4757" x="92.6064" y="74.0996" width="7.20898" height="7.20605" filterUnits="userSpaceOnUse" color-interpolation-filters="sRGB">
<feFlood flood-opacity="0" result="BackgroundImageFix"/>
<feBlend mode="normal" in="SourceGraphic" in2="BackgroundImageFix" result="shape"/>
<feGaussianBlur stdDeviation="1" result="effect1_foregroundBlur_118_4757"/>
</filter>
<filter id="filter4_f_118_4757" x="99.0254" y="78.1064" width="7.20898" height="7.20605" filterUnits="userSpaceOnUse" color-interpolation-filters="sRGB">
<feFlood flood-opacity="0" result="BackgroundImageFix"/>
<feBlend mode="normal" in="SourceGraphic" in2="BackgroundImageFix" result="shape"/>
<feGaussianBlur stdDeviation="1" result="effect1_foregroundBlur_118_4757"/>
</filter>
<filter id="filter5_f_118_4757" x="94.2109" y="82.916" width="7.20898" height="7.20605" filterUnits="userSpaceOnUse" color-interpolation-filters="sRGB">
<feFlood flood-opacity="0" result="BackgroundImageFix"/>
<feBlend mode="normal" in="SourceGraphic" in2="BackgroundImageFix" result="shape"/>
<feGaussianBlur stdDeviation="1" result="effect1_foregroundBlur_118_4757"/>
</filter>
<filter id="filter6_f_118_4757" x="41.2568" y="74.0996" width="7.20898" height="7.20605" filterUnits="userSpaceOnUse" color-interpolation-filters="sRGB">
<feFlood flood-opacity="0" result="BackgroundImageFix"/>
<feBlend mode="normal" in="SourceGraphic" in2="BackgroundImageFix" result="shape"/>
<feGaussianBlur stdDeviation="1" result="effect1_foregroundBlur_118_4757"/>
</filter>
<filter id="filter7_f_118_4757" x="34.8379" y="78.1064" width="7.20898" height="7.20605" filterUnits="userSpaceOnUse" color-interpolation-filters="sRGB">
<feFlood flood-opacity="0" result="BackgroundImageFix"/>
<feBlend mode="normal" in="SourceGraphic" in2="BackgroundImageFix" result="shape"/>
<feGaussianBlur stdDeviation="1" result="effect1_foregroundBlur_118_4757"/>
</filter>
<filter id="filter8_f_118_4757" x="40.4541" y="82.916" width="7.20898" height="7.20605" filterUnits="userSpaceOnUse" color-interpolation-filters="sRGB">
<feFlood flood-opacity="0" result="BackgroundImageFix"/>
<feBlend mode="normal" in="SourceGraphic" in2="BackgroundImageFix" result="shape"/>
<feGaussianBlur stdDeviation="1" result="effect1_foregroundBlur_118_4757"/>
</filter>
<filter id="filter9_i_118_4757" x="40.0469" y="47.252" width="33.292" height="35.2598" filterUnits="userSpaceOnUse" color-interpolation-filters="sRGB">
<feFlood flood-opacity="0" result="BackgroundImageFix"/>
<feBlend mode="normal" in="SourceGraphic" in2="BackgroundImageFix" result="shape"/>
<feColorMatrix in="SourceAlpha" type="matrix" values="0 0 0 0 0 0 0 0 0 0 0 0 0 0 0 0 0 0 127 0" result="hardAlpha"/>
<feOffset dx="2" dy="-4"/>
<feGaussianBlur stdDeviation="2"/>
<feComposite in2="hardAlpha" operator="arithmetic" k2="-1" k3="1"/>
<feColorMatrix type="matrix" values="0 0 0 0 0 0 0 0 0 0 0 0 0 0 0 0 0 0 0.1 0"/>
<feBlend mode="normal" in2="shape" result="effect1_innerShadow_118_4757"/>
</filter>
<filter id="filter10_i_118_4757" x="72.5479" y="47.252" width="33.292" height="35.2598" filterUnits="userSpaceOnUse" color-interpolation-filters="sRGB">
<feFlood flood-opacity="0" result="BackgroundImageFix"/>
<feBlend mode="normal" in="SourceGraphic" in2="BackgroundImageFix" result="shape"/>
<feColorMatrix in="SourceAlpha" type="matrix" values="0 0 0 0 0 0 0 0 0 0 0 0 0 0 0 0 0 0 127 0" result="hardAlpha"/>
<feOffset dx="-2" dy="-4"/>
<feGaussianBlur stdDeviation="2"/>
<feComposite in2="hardAlpha" operator="arithmetic" k2="-1" k3="1"/>
<feColorMatrix type="matrix" values="0 0 0 0 0 0 0 0 0 0 0 0 0 0 0 0 0 0 0.1 0"/>
<feBlend mode="normal" in2="shape" result="effect1_innerShadow_118_4757"/>
</filter>
<radialGradient id="paint0_radial_118_4757" cx="0" cy="0" r="1" gradientUnits="userSpaceOnUse" gradientTransform="translate(72.9433 82.5115) rotate(90) scale(58.5115 48.9433)">
<stop stop-color="#FFA7BC"/>
<stop offset="1" stop-color="#FF7394"/>
</radialGradient>
<radialGradient id="paint1_radial_118_4757" cx="0" cy="0" r="1" gradientUnits="userSpaceOnUse" gradientTransform="translate(72.9433 141.023) rotate(90) scale(16.2532 13.5953)">
<stop stop-color="#300303" stop-opacity="0.916667"/>
<stop offset="1" stop-color="#E07676" stop-opacity="0"/>
</radialGradient>
<linearGradient id="paint2_linear_118_4757" x1="72.9436" y1="78.1029" x2="72.9436" y2="108.16" gradientUnits="userSpaceOnUse">
<stop offset="0.0181248" stop-color="#DEF7FF"/>
<stop offset="0.233521" stop-color="white"/>
</linearGradient>
<radialGradient id="paint3_radial_118_4757" cx="0" cy="0" r="1" gradientUnits="userSpaceOnUse" gradientTransform="translate(55.6927 66.8817) rotate(90) scale(15.6298 15.6458)">
<stop offset="0.71875" stop-color="white"/>
<stop offset="1" stop-color="#DEF7FF"/>
</radialGradient>
<radialGradient id="paint4_radial_118_4757" cx="0" cy="0" r="1" gradientUnits="userSpaceOnUse" gradientTransform="translate(90.1937 66.8817) rotate(90) scale(15.6298 15.6458)">
<stop offset="0.71875" stop-color="white"/>
<stop offset="1" stop-color="#DEF7FF"/>
</radialGradient>
</defs>
</svg>
