<svg width="188" height="153" viewBox="0 0 188 153" fill="none" xmlns="http://www.w3.org/2000/svg">
<g filter="url(#filter0_dii_118_4801)">
<path d="M35.2581 49.2495C39.3772 34.3328 52.9606 24 68.4504 24H119.306C134.796 24 148.379 34.3327 152.499 49.2495L162.497 85.4567C168.546 107.36 152.05 129 129.305 129H58.4516C35.7066 129 19.211 107.36 25.2596 85.4567L35.2581 49.2495Z" fill="url(#paint0_radial_118_4801)"/>
</g>
<mask id="mask0_118_4801" style="mask-type:luminance" maskUnits="userSpaceOnUse" x="52" y="36" width="41" height="41">
<path d="M92.0657 36.6729H52.1973V76.5004H92.0657V36.6729Z" fill="white"/>
</mask>
<g mask="url(#mask0_118_4801)">
<mask id="mask1_118_4801" style="mask-type:alpha" maskUnits="userSpaceOnUse" x="52" y="36" width="41" height="41">
<path fill-rule="evenodd" clip-rule="evenodd" d="M63.6739 36.6729H52.1973V76.5004H92.0657V36.6729H85.1195C82.1457 38.9442 78.4289 40.2935 74.3967 40.2935C70.3646 40.2935 66.6478 38.9442 63.6739 36.6729Z" fill="white"/>
</mask>
<g mask="url(#mask1_118_4801)">
<g filter="url(#filter1_i_118_4801)">
<path d="M74.3965 76.5C84.1548 76.5 92.0655 68.5974 92.0655 58.8491C92.0655 49.1008 84.1548 41.1982 74.3965 41.1982C64.6382 41.1982 56.7275 49.1008 56.7275 58.8491C56.7275 68.5974 64.6382 76.5 74.3965 76.5Z" fill="url(#paint1_radial_118_4801)"/>
</g>
<g style="mix-blend-mode:color-dodge" opacity="0.1">
<path d="M63.9766 60.2068C66.9792 60.2068 69.4133 57.7752 69.4133 54.7758C69.4133 51.7763 66.9792 49.3447 63.9766 49.3447C60.9741 49.3447 58.54 51.7763 58.54 54.7758C58.54 57.7752 60.9741 60.2068 63.9766 60.2068Z" fill="#D9D9D9"/>
</g>
<path d="M74.8497 64.7332C77.8522 64.7332 80.2863 62.3016 80.2863 59.3021C80.2863 56.3027 77.8522 53.8711 74.8497 53.8711C71.8471 53.8711 69.4131 56.3027 69.4131 59.3021C69.4131 62.3016 71.8471 64.7332 74.8497 64.7332Z" fill="#29262A"/>
<g style="mix-blend-mode:color-dodge">
<path d="M69.4126 58.3969C70.9139 58.3969 72.1309 57.1811 72.1309 55.6813C72.1309 54.1816 70.9139 52.9658 69.4126 52.9658C67.9114 52.9658 66.6943 54.1816 66.6943 55.6813C66.6943 57.1811 67.9114 58.3969 69.4126 58.3969Z" fill="#D9D9D9"/>
</g>
</g>
</g>
<mask id="mask2_118_4801" style="mask-type:luminance" maskUnits="userSpaceOnUse" x="95" y="36" width="41" height="41">
<path d="M135.559 36.6729H95.6904V76.5004H135.559V36.6729Z" fill="white"/>
</mask>
<g mask="url(#mask2_118_4801)">
<mask id="mask3_118_4801" style="mask-type:alpha" maskUnits="userSpaceOnUse" x="95" y="36" width="41" height="41">
<path fill-rule="evenodd" clip-rule="evenodd" d="M107.167 36.6729H95.6904V76.5004H104.408C106.183 70.2317 111.952 65.6384 118.796 65.6384C125.64 65.6384 131.409 70.2317 133.184 76.5004H135.559V36.6729H128.613C125.639 38.9442 121.922 40.2935 117.89 40.2935C113.858 40.2935 110.141 38.9442 107.167 36.6729Z" fill="white"/>
</mask>
<g mask="url(#mask3_118_4801)">
<g filter="url(#filter2_i_118_4801)">
<path d="M113.359 76.5C123.118 76.5 131.028 68.5974 131.028 58.8491C131.028 49.1008 123.118 41.1982 113.359 41.1982C103.601 41.1982 95.6904 49.1008 95.6904 58.8491C95.6904 68.5974 103.601 76.5 113.359 76.5Z" fill="url(#paint2_radial_118_4801)"/>
</g>
<path d="M113.813 64.7332C116.815 64.7332 119.249 62.3016 119.249 59.3021C119.249 56.3027 116.815 53.8711 113.813 53.8711C110.81 53.8711 108.376 56.3027 108.376 59.3021C108.376 62.3016 110.81 64.7332 113.813 64.7332Z" fill="#29262A"/>
<g style="mix-blend-mode:color-dodge">
<path d="M108.376 58.3969C109.877 58.3969 111.094 57.1811 111.094 55.6813C111.094 54.1816 109.877 52.9658 108.376 52.9658C106.874 52.9658 105.657 54.1816 105.657 55.6813C105.657 57.1811 106.874 58.3969 108.376 58.3969Z" fill="#D9D9D9"/>
</g>
</g>
</g>
<path d="M114.266 35.3142L116.941 34.7331C121.571 33.7278 126.326 35.7822 128.763 39.8401" stroke="#29282B" stroke-width="3" stroke-linecap="round"/>
<mask id="mask4_118_4801" style="mask-type:luminance" maskUnits="userSpaceOnUse" x="53" y="72" width="82" height="32">
<path d="M134.653 72.8799H53.1035V103.656H134.653V72.8799Z" fill="white"/>
</mask>
<g mask="url(#mask4_118_4801)">
<mask id="mask5_118_4801" style="mask-type:alpha" maskUnits="userSpaceOnUse" x="53" y="72" width="82" height="32">
<path d="M119.249 72.8799H68.5072C60 72.8799 53.1035 79.7693 53.1035 88.2678C53.1035 96.7663 60 103.656 68.5072 103.656H119.249C127.756 103.656 134.653 96.7663 134.653 88.2678C134.653 79.7693 127.756 72.8799 119.249 72.8799Z" fill="url(#paint3_linear_118_4801)"/>
</mask>
<g mask="url(#mask5_118_4801)">
<path d="M76.6621 86.4575L80.446 88.3819C92.9792 94.7561 108.217 92.1311 117.89 81.9316" stroke="#29282B" stroke-width="2" stroke-linecap="round"/>
<path d="M119.249 87.3629L120.069 86.2631C123.41 81.7807 118.191 75.9478 113.359 78.7637" stroke="#29282B" stroke-width="2" stroke-linecap="round"/>
</g>
</g>
<path d="M60.3525 40.7456C62.22 36.4817 66.736 34.0177 71.3363 34.753L74.8502 35.3145" stroke="#29282B" stroke-width="3" stroke-linecap="round"/>
<defs>
<filter id="filter0_dii_118_4801" x="0" y="0" width="187.757" height="153" filterUnits="userSpaceOnUse" color-interpolation-filters="sRGB">
<feFlood flood-opacity="0" result="BackgroundImageFix"/>
<feColorMatrix in="SourceAlpha" type="matrix" values="0 0 0 0 0 0 0 0 0 0 0 0 0 0 0 0 0 0 127 0" result="hardAlpha"/>
<feOffset/>
<feGaussianBlur stdDeviation="12"/>
<feComposite in2="hardAlpha" operator="out"/>
<feColorMatrix type="matrix" values="0 0 0 0 0.701961 0 0 0 0 0.811765 0 0 0 0 1 0 0 0 1 0"/>
<feBlend mode="normal" in2="BackgroundImageFix" result="effect1_dropShadow_118_4801"/>
<feBlend mode="normal" in="SourceGraphic" in2="effect1_dropShadow_118_4801" result="shape"/>
<feColorMatrix in="SourceAlpha" type="matrix" values="0 0 0 0 0 0 0 0 0 0 0 0 0 0 0 0 0 0 127 0" result="hardAlpha"/>
<feOffset dx="-10" dy="10"/>
<feGaussianBlur stdDeviation="6"/>
<feComposite in2="hardAlpha" operator="arithmetic" k2="-1" k3="1"/>
<feColorMatrix type="matrix" values="0 0 0 0 0.180392 0 0 0 0 0.164706 0 0 0 0 0.168627 0 0 0 1 0"/>
<feBlend mode="soft-light" in2="shape" result="effect2_innerShadow_118_4801"/>
<feColorMatrix in="SourceAlpha" type="matrix" values="0 0 0 0 0 0 0 0 0 0 0 0 0 0 0 0 0 0 127 0" result="hardAlpha"/>
<feOffset dx="-10" dy="-18"/>
<feGaussianBlur stdDeviation="6"/>
<feComposite in2="hardAlpha" operator="arithmetic" k2="-1" k3="1"/>
<feColorMatrix type="matrix" values="0 0 0 0 0.180392 0 0 0 0 0.164706 0 0 0 0 0.168627 0 0 0 1 0"/>
<feBlend mode="soft-light" in2="effect2_innerShadow_118_4801" result="effect3_innerShadow_118_4801"/>
</filter>
<filter id="filter1_i_118_4801" x="56.7275" y="37.1982" width="37.3379" height="39.3018" filterUnits="userSpaceOnUse" color-interpolation-filters="sRGB">
<feFlood flood-opacity="0" result="BackgroundImageFix"/>
<feBlend mode="normal" in="SourceGraphic" in2="BackgroundImageFix" result="shape"/>
<feColorMatrix in="SourceAlpha" type="matrix" values="0 0 0 0 0 0 0 0 0 0 0 0 0 0 0 0 0 0 127 0" result="hardAlpha"/>
<feOffset dx="2" dy="-4"/>
<feGaussianBlur stdDeviation="2"/>
<feComposite in2="hardAlpha" operator="arithmetic" k2="-1" k3="1"/>
<feColorMatrix type="matrix" values="0 0 0 0 0 0 0 0 0 0 0 0 0 0 0 0 0 0 0.1 0"/>
<feBlend mode="normal" in2="shape" result="effect1_innerShadow_118_4801"/>
</filter>
<filter id="filter2_i_118_4801" x="93.6904" y="37.1982" width="37.3379" height="39.3018" filterUnits="userSpaceOnUse" color-interpolation-filters="sRGB">
<feFlood flood-opacity="0" result="BackgroundImageFix"/>
<feBlend mode="normal" in="SourceGraphic" in2="BackgroundImageFix" result="shape"/>
<feColorMatrix in="SourceAlpha" type="matrix" values="0 0 0 0 0 0 0 0 0 0 0 0 0 0 0 0 0 0 127 0" result="hardAlpha"/>
<feOffset dx="-2" dy="-4"/>
<feGaussianBlur stdDeviation="2"/>
<feComposite in2="hardAlpha" operator="arithmetic" k2="-1" k3="1"/>
<feColorMatrix type="matrix" values="0 0 0 0 0 0 0 0 0 0 0 0 0 0 0 0 0 0 0.1 0"/>
<feBlend mode="normal" in2="shape" result="effect1_innerShadow_118_4801"/>
</filter>
<radialGradient id="paint0_radial_118_4801" cx="0" cy="0" r="1" gradientUnits="userSpaceOnUse" gradientTransform="translate(93.8783 76.5) rotate(90) scale(52.5 66.1454)">
<stop stop-color="#C8DCFE"/>
<stop offset="1" stop-color="#C2D8FF"/>
</radialGradient>
<radialGradient id="paint1_radial_118_4801" cx="0" cy="0" r="1" gradientUnits="userSpaceOnUse" gradientTransform="translate(74.3965 58.8491) rotate(90) scale(17.6509 17.669)">
<stop offset="0.71875" stop-color="white"/>
<stop offset="1" stop-color="#DEF7FF"/>
</radialGradient>
<radialGradient id="paint2_radial_118_4801" cx="0" cy="0" r="1" gradientUnits="userSpaceOnUse" gradientTransform="translate(113.359 58.8491) rotate(90) scale(17.6509 17.669)">
<stop offset="0.71875" stop-color="white"/>
<stop offset="1" stop-color="#DEF7FF"/>
</radialGradient>
<linearGradient id="paint3_linear_118_4801" x1="93.8781" y1="69.7118" x2="93.8781" y2="103.656" gradientUnits="userSpaceOnUse">
<stop offset="0.0181248" stop-color="#DEF7FF"/>
<stop offset="0.233521" stop-color="white"/>
</linearGradient>
</defs>
</svg>
