<svg width="100" height="99" viewBox="0 0 100 99" fill="none" xmlns="http://www.w3.org/2000/svg">
<g clip-path="url(#clip0_184_4313)">
<path d="M81.2586 71.367H18.74C17.7848 71.367 16.8925 70.895 16.3547 70.1059C8.10604 58.0096 7.47326 34.7409 7.42539 31.2868C7.42239 31.1514 7.4209 31.0145 7.4209 30.8784C7.4209 29.286 8.71041 27.9942 10.3028 27.9912H10.3088C11.8983 27.9912 13.19 29.277 13.196 30.8672C13.196 30.8866 13.1968 31.0572 13.2035 31.3593C13.4578 39.5743 20.2202 46.1782 28.4958 46.1782C36.9322 46.1782 43.7956 39.3148 43.7956 30.8784C43.7956 29.2837 45.0889 27.9912 46.6828 27.9912H53.3151C54.9098 27.9912 56.2023 29.2837 56.2023 30.8784C56.2023 39.3148 63.0664 46.1782 71.5028 46.1782C79.7859 46.1782 86.5528 39.5624 86.7959 31.3369C86.8011 31.0482 86.8026 30.8866 86.8026 30.8679C86.8086 29.277 88.0996 27.9912 89.6898 27.9912H89.695C91.2875 27.9942 92.577 29.286 92.577 30.8784C92.577 31.0153 92.5755 31.1514 92.5732 31.2875C92.5246 34.7409 91.8918 58.0104 83.6439 70.1066C83.1061 70.895 82.213 71.367 81.2586 71.367Z" fill="#FFF780"/>
<path d="M89.695 27.9912C89.6935 27.9912 89.692 27.9912 89.6897 27.9912C88.1003 27.9912 86.8085 29.277 86.8025 30.8672C86.8025 30.8866 86.8018 31.0482 86.7958 31.3369C86.5527 39.5616 79.7858 46.1782 71.5027 46.1782C63.0664 46.1782 56.2029 39.3148 56.2029 30.8784C56.2029 29.2837 54.9097 27.9912 53.3158 27.9912H50V71.3662H81.2586C82.2137 71.3662 83.1061 70.8942 83.6439 70.1059C91.8925 58.0096 92.5253 34.7402 92.5732 31.2868C92.5762 31.1514 92.5777 31.0145 92.5777 30.8784C92.5769 29.286 91.2874 27.9942 89.695 27.9912Z" fill="#FFC02E"/>
<path d="M49.9996 18.1396C44.8558 18.1396 40.6709 22.3246 40.6709 27.4684C40.6709 32.6122 44.8558 36.7964 49.9996 36.7964C55.1434 36.7964 59.3284 32.6122 59.3284 27.4684C59.3284 22.3246 55.1434 18.1396 49.9996 18.1396Z" fill="#FFC02E"/>
<path d="M50 18.1396V36.7971C55.1438 36.7964 59.328 32.6122 59.328 27.4684C59.328 22.3246 55.1431 18.1404 50 18.1396Z" fill="#FFA73B"/>
<path d="M10.3092 25.3389C5.16538 25.3389 0.980469 29.5238 0.980469 34.6676C0.980469 39.8114 5.16538 43.9963 10.3092 43.9963C15.453 43.9963 19.6372 39.8114 19.6372 34.6676C19.6372 29.5238 15.453 25.3389 10.3092 25.3389Z" fill="#FFC02E"/>
<path d="M89.6903 25.3389C84.5465 25.3389 80.3623 29.5238 80.3623 34.6676C80.3623 39.8107 84.5465 43.9956 89.6903 43.9956C94.8341 43.9956 99.019 39.8107 99.019 34.6676C99.019 29.5238 94.8341 25.3389 89.6903 25.3389Z" fill="#FFA73B"/>
<path d="M81.2593 80.8389H18.7407C17.146 80.8389 15.8535 79.5464 15.8535 77.9517V69.3418H84.1465V77.9517C84.1465 79.5464 82.854 80.8389 81.2593 80.8389Z" fill="#FFC02E"/>
<path d="M50 80.8389H81.2586C82.8533 80.8389 84.1457 79.5464 84.1457 77.9517V69.3418H50V80.8389Z" fill="#FFA73B"/>
</g>
<defs>
<clipPath id="clip0_184_4313">
<rect width="98.0384" height="98.0384" fill="white" transform="translate(0.980469 0.523438)"/>
</clipPath>
</defs>
</svg>
