<svg width="68" height="48" viewBox="0 0 68 48" fill="none" xmlns="http://www.w3.org/2000/svg">
<mask id="mask0_1_13261" style="mask-type:luminance" maskUnits="userSpaceOnUse" x="0" y="0" width="44" height="48">
<path d="M0 0H43.7675V48H0V0Z" fill="white"/>
</mask>
<g mask="url(#mask0_1_13261)">
<mask id="mask1_1_13261" style="mask-type:luminance" maskUnits="userSpaceOnUse" x="-4" y="-7" width="58" height="57">
<path d="M6.28584 -6.65869L53.0679 6.96407L43.3709 49.9317L-3.41211 36.3089L6.28584 -6.65869Z" fill="white"/>
</mask>
<g mask="url(#mask1_1_13261)">
<mask id="mask2_1_13261" style="mask-type:luminance" maskUnits="userSpaceOnUse" x="-4" y="-7" width="58" height="57">
<path d="M53.1021 6.97433L6.32002 -6.64844L-3.37793 36.3192L43.4051 49.942L53.1021 6.97433Z" fill="white"/>
</mask>
<g mask="url(#mask2_1_13261)">
<path fill-rule="evenodd" clip-rule="evenodd" d="M28.0394 45.3314C33.5742 46.943 38.9391 47.7153 43.7487 47.7265C40.52 47.3582 37.1311 46.6796 33.6764 45.6729C16.3587 40.6305 3.95864 29.2812 5.98076 20.3225C7.35636 14.2287 15.0528 10.8135 25.2892 10.837C12.3321 9.34814 1.96304 12.8102 0.343768 19.9843C-1.67738 28.9397 10.7226 40.289 28.0394 45.3314ZM35.2004 10.856L35.2308 10.7243C28.3175 8.71198 28.1033 7.29123 29.7177 0.139439L29.6017 0.105957C27.9874 7.25774 27.1954 8.38498 20.282 6.37158L20.2526 6.50328C27.1659 8.51667 27.3831 9.93408 25.7697 17.0859L25.8856 17.1194C27.499 9.96756 28.287 8.84256 35.2004 10.856Z" fill="#633796"/>
</g>
</g>
</g>
<path d="M26.1107 19.0934C26.092 18.1805 26.2718 17.4104 26.6491 16.7854C27.0264 16.1581 27.5423 15.686 28.1977 15.3702C28.8521 15.0555 29.591 14.897 30.4143 14.897C31.108 14.897 31.7133 15.0108 32.2301 15.2363C32.746 15.4628 33.1577 15.7653 33.4642 16.1425C33.7728 16.5209 33.9634 16.9405 34.0341 17.4014C34.1019 17.8869 34.0223 18.3021 33.7944 18.647C33.5664 18.9896 33.2481 19.2742 32.8393 19.4997C32.4325 19.7229 31.9943 19.888 31.5227 19.9952C31.051 20.1023 30.6118 20.1559 30.206 20.1559C29.9486 20.1559 29.7207 20.1403 29.5222 20.1068C29.7285 20.7262 29.9987 21.1682 30.3318 21.4327C30.6639 21.6983 31.0442 21.8367 31.4716 21.8479C31.9373 21.8479 32.3402 21.7084 32.6782 21.4282C33.0162 21.1459 33.2343 20.7396 33.3345 20.2095C33.4131 19.8378 33.591 19.6682 33.8691 19.7005C34.1461 19.7452 34.2552 19.9662 34.1953 20.3613C34.0066 21.397 33.5595 22.1447 32.855 22.6023C32.1496 23.0577 31.2672 23.2854 30.206 23.2854C28.9739 23.2854 27.9913 22.9282 27.2583 22.2139C26.5244 21.4974 26.1421 20.4572 26.1107 19.0934ZM29.9977 15.8791C29.7796 15.9238 29.5988 16.1046 29.4554 16.4193C29.3109 16.7351 29.2235 17.1414 29.192 17.638C29.1626 18.1358 29.2038 18.676 29.3139 19.2586C29.5418 19.2831 29.7914 19.2787 30.0645 19.2452C30.3367 19.2095 30.5843 19.1224 30.8074 18.9818C31.0324 18.8423 31.1788 18.6313 31.2476 18.3479C31.3576 17.9193 31.3625 17.5063 31.2633 17.1068C31.1631 16.705 31 16.3836 30.772 16.1425C30.544 15.8992 30.2856 15.811 29.9977 15.8791Z" fill="#351A57"/>
<path d="M35.3277 16.4194C35.2177 16.4082 35.1371 16.3479 35.088 16.2408C35.0379 16.1336 35.0221 16.0198 35.0408 15.897C35.0614 15.772 35.1214 15.6816 35.2216 15.6247C35.5596 15.3993 35.989 15.2252 36.5107 15.1024C37.0315 14.9774 37.5346 14.9149 38.02 14.9149C38.3973 14.9149 38.7048 14.9528 38.9436 15.0265C39.1813 15.0979 39.3602 15.2497 39.4781 15.4818C39.598 15.714 39.6589 16.0711 39.6589 16.5533C39.936 16.06 40.3005 15.6638 40.7515 15.3658C41.2045 15.0656 41.6987 14.9093 42.2332 14.897C43.0271 14.8769 43.6324 15.0075 44.049 15.2899C44.4676 15.57 44.7309 16.0254 44.839 16.656C45.1082 16.1381 45.4767 15.7185 45.9434 15.397C46.4091 15.0756 46.9151 14.9093 47.4605 14.897C48.4037 14.8769 49.0837 15.0711 49.5003 15.4818C49.9169 15.8926 50.1252 16.5667 50.1252 17.5042V21.2229H50.1409V21.3926C50.1409 21.6961 50.2637 21.9439 50.5104 22.1336C50.5595 22.1582 50.6066 22.1872 50.6518 22.2229C50.6961 22.2564 50.7393 22.2888 50.7815 22.3211C50.9093 22.4227 50.9466 22.57 50.8916 22.7631C50.8366 22.954 50.7305 23.0488 50.5732 23.0488H48.1286C47.7611 23.0488 47.484 22.9707 47.2954 22.8122C47.1067 22.6548 46.9741 22.4461 46.8984 22.1872C46.8247 21.9283 46.7845 21.6582 46.7766 21.3747L46.7884 18.6336C46.7884 18.3301 46.7854 18.0265 46.7805 17.7229C46.7776 17.4194 46.7334 17.1638 46.6469 16.9551C46.5624 16.7441 46.4013 16.6448 46.1635 16.656C45.9453 16.656 45.7429 16.7586 45.5543 16.964C45.3656 17.1671 45.2133 17.4138 45.0984 17.7051C44.9854 17.9975 44.9186 18.2899 44.8979 18.5845V21.3926C44.8979 21.7084 45.0276 21.9551 45.287 22.1336C45.3362 22.1582 45.3814 22.1872 45.4207 22.2229C45.46 22.2564 45.4993 22.2888 45.5386 22.3211C45.6692 22.4227 45.7095 22.57 45.6604 22.7631C45.6103 22.954 45.5052 23.0488 45.346 23.0488H42.8896C42.5329 23.0488 42.2578 22.9707 42.0642 22.8122C41.8697 22.6548 41.738 22.4461 41.6672 22.1872C41.5985 21.9283 41.5592 21.6582 41.5493 21.3747V18.6336C41.5592 18.3301 41.5592 18.0265 41.5493 17.7229C41.5385 17.4194 41.4914 17.1638 41.4078 16.9551C41.3233 16.7441 41.1622 16.6448 40.9244 16.656C40.6965 16.656 40.4852 16.7698 40.2916 16.9952C40.0971 17.2218 39.9428 17.4952 39.8279 17.8167C39.7149 18.1381 39.6589 18.4506 39.6589 18.7542V21.3926C39.6589 21.5388 39.6952 21.6772 39.7689 21.8077C39.8446 21.9361 39.936 22.0444 40.044 22.1336C40.0932 22.1582 40.1384 22.1872 40.1777 22.2229C40.2189 22.2564 40.2602 22.2888 40.2995 22.3211C40.4381 22.4227 40.4803 22.57 40.4253 22.7631C40.3703 22.954 40.2641 23.0488 40.1069 23.0488H35.8033C35.6539 23.0488 35.5517 22.954 35.4967 22.7631C35.4417 22.57 35.479 22.4227 35.6107 22.3211C35.6598 22.2888 35.709 22.2564 35.7561 22.2229C35.8052 22.1872 35.8554 22.1537 35.9055 22.1202C36.1747 21.9718 36.3103 21.7296 36.3103 21.3926V16.7095C36.3103 16.5734 36.2769 16.4819 36.212 16.4372C36.1462 16.3926 36.0597 16.3702 35.9526 16.3702C35.8524 16.3702 35.7483 16.3792 35.6382 16.397C35.5301 16.4127 35.427 16.4194 35.3277 16.4194Z" fill="#351A57"/>
<path d="M26.6371 18.4953C26.6184 17.5823 26.7982 16.8122 27.1755 16.1872C27.5528 15.56 28.0687 15.0879 28.724 14.772C29.3784 14.4573 30.1173 14.2988 30.9407 14.2988C31.6344 14.2988 32.2397 14.4127 32.7565 14.6381C33.2723 14.8647 33.684 15.1671 33.9906 15.5444C34.2991 15.9227 34.4897 16.3424 34.5605 16.8033C34.6283 17.2888 34.5487 17.704 34.3207 18.0488C34.0928 18.3915 33.7744 18.6761 33.3657 18.9015C32.9589 19.1247 32.5207 19.2899 32.049 19.397C31.5774 19.5042 31.1382 19.5578 30.7324 19.5578C30.475 19.5578 30.247 19.5421 30.0485 19.5086C30.2549 20.1281 30.5251 20.57 30.8582 20.8345C31.1903 21.1002 31.5705 21.2386 31.998 21.2497C32.4637 21.2497 32.8665 21.1102 33.2045 20.8301C33.5426 20.5477 33.7607 20.1415 33.8609 19.6113C33.9395 19.2397 34.1174 19.07 34.3954 19.1024C34.6725 19.147 34.7816 19.368 34.7216 19.7631C34.533 20.7988 34.0859 21.5466 33.3814 22.0042C32.6759 22.4595 31.7936 22.6872 30.7324 22.6872C29.5003 22.6872 28.5177 22.3301 27.7847 21.6158C27.0507 20.8993 26.6685 19.8591 26.6371 18.4953ZM30.5241 15.281C30.306 15.3256 30.1252 15.5064 29.9817 15.8211C29.8373 16.137 29.7498 16.5432 29.7184 17.0399C29.6889 17.5377 29.7302 18.0778 29.8402 18.6604C30.0682 18.685 30.3178 18.6805 30.5909 18.647C30.8631 18.6113 31.1107 18.5243 31.3337 18.3836C31.5587 18.2441 31.7051 18.0332 31.7739 17.7497C31.884 17.3211 31.8889 16.9082 31.7896 16.5086C31.6894 16.1069 31.5263 15.7854 31.2984 15.5444C31.0704 15.3011 30.812 15.2129 30.5241 15.281Z" fill="#C19EDD"/>
<path d="M35.8541 15.8212C35.744 15.81 35.6635 15.7498 35.6143 15.6426C35.5642 15.5355 35.5485 15.4217 35.5672 15.2989C35.5878 15.1739 35.6477 15.0835 35.748 15.0266C36.086 14.8011 36.5154 14.627 37.0371 14.5042C37.5579 14.3792 38.0609 14.3167 38.5463 14.3167C38.9236 14.3167 39.2312 14.3547 39.4699 14.4283C39.7077 14.4998 39.8865 14.6516 40.0045 14.8837C40.1243 15.1158 40.1852 15.473 40.1852 15.9551C40.4623 15.4618 40.8269 15.0656 41.2779 14.7676C41.7308 14.4674 42.2251 14.3112 42.7596 14.2989C43.5535 14.2788 44.1588 14.4094 44.5754 14.6917C44.9939 14.9719 45.2573 15.4272 45.3653 16.0578C45.6346 15.54 46.003 15.1203 46.4698 14.7989C46.9355 14.4775 47.4415 14.3112 47.9868 14.2989C48.9301 14.2788 49.61 14.473 50.0267 14.8837C50.4433 15.2944 50.6516 15.9685 50.6516 16.906V20.6248H50.6673V20.7944C50.6673 21.098 50.7901 21.3458 51.0367 21.5355C51.0859 21.56 51.133 21.5891 51.1782 21.6248C51.2224 21.6583 51.2657 21.6906 51.3079 21.723C51.4357 21.8246 51.473 21.9719 51.418 22.165C51.3629 22.3558 51.2568 22.4507 51.0996 22.4507H48.655C48.2875 22.4507 48.0104 22.3725 47.8218 22.2141C47.6331 22.0567 47.5005 21.848 47.4248 21.5891C47.3511 21.3301 47.3108 21.06 47.303 20.7766L47.3148 18.0355C47.3148 17.7319 47.3118 17.4283 47.3069 17.1248C47.304 16.8212 47.2597 16.5656 47.1733 16.3569C47.0888 16.146 46.9276 16.0467 46.6899 16.0578C46.4717 16.0578 46.2693 16.1605 46.0807 16.3658C45.892 16.569 45.7397 16.8156 45.6247 17.1069C45.5118 17.3993 45.4449 17.6917 45.4243 17.9864V20.7944C45.4243 21.1103 45.554 21.3569 45.8134 21.5355C45.8625 21.56 45.9077 21.5891 45.947 21.6248C45.9863 21.6583 46.0256 21.6906 46.0649 21.723C46.1956 21.8246 46.2359 21.9719 46.1868 22.165C46.1367 22.3558 46.0315 22.4507 45.8724 22.4507H43.4159C43.0593 22.4507 42.7841 22.3725 42.5906 22.2141C42.396 22.0567 42.2644 21.848 42.1936 21.5891C42.1248 21.3301 42.0855 21.06 42.0757 20.7766V18.0355C42.0855 17.7319 42.0855 17.4283 42.0757 17.1248C42.0649 16.8212 42.0177 16.5656 41.9342 16.3569C41.8497 16.146 41.6886 16.0467 41.4508 16.0578C41.2228 16.0578 41.0116 16.1717 40.818 16.3971C40.6235 16.6237 40.4692 16.8971 40.3542 17.2185C40.2413 17.54 40.1852 17.8525 40.1852 18.156V20.7944C40.1852 20.9406 40.2216 21.079 40.2953 21.2096C40.371 21.3379 40.4623 21.4462 40.5704 21.5355C40.6195 21.56 40.6647 21.5891 40.704 21.6248C40.7453 21.6583 40.7866 21.6906 40.8259 21.723C40.9644 21.8246 41.0067 21.9719 40.9516 22.165C40.8966 22.3558 40.7905 22.4507 40.6333 22.4507H36.3296C36.1803 22.4507 36.0781 22.3558 36.0231 22.165C35.9681 21.9719 36.0054 21.8246 36.1371 21.723C36.1862 21.6906 36.2353 21.6583 36.2825 21.6248C36.3316 21.5891 36.3817 21.5556 36.4318 21.5221C36.7011 21.3737 36.8367 21.1315 36.8367 20.7944V16.1114C36.8367 15.9752 36.8032 15.8837 36.7384 15.8391C36.6726 15.7944 36.5861 15.7721 36.479 15.7721C36.3788 15.7721 36.2746 15.781 36.1646 15.7989C36.0565 15.8145 35.9533 15.8212 35.8541 15.8212Z" fill="#C19EDD"/>
<path d="M20.6212 37.6252C19.4942 37.6252 18.5155 37.4801 17.6852 37.1921C16.8569 36.9008 16.232 36.4957 15.8105 35.9778C15.391 35.4578 15.2131 34.8573 15.276 34.1787C15.3281 33.7212 15.5089 33.3417 15.8184 33.0403C16.1269 32.7368 16.4885 32.5973 16.9031 32.6207C17.2647 32.633 17.5487 32.7357 17.756 32.9287C17.9653 33.1229 18.1353 33.3651 18.2669 33.6564C18.4006 33.9455 18.5283 34.2569 18.6521 34.5895C18.7749 34.9198 18.9203 35.2368 19.0884 35.5403C19.2583 35.8417 19.4932 36.1017 19.7919 36.3216C20.0906 36.5392 20.4846 36.6776 20.9749 36.7368C21.5173 36.8082 21.9928 36.7412 22.4016 36.5359C22.8103 36.3305 23.0786 36.0113 23.2073 35.5761C23.3252 35.2011 23.2741 34.864 23.054 34.5627C22.8359 34.2591 22.5136 33.9723 22.0872 33.7011C21.6627 33.431 21.1812 33.1598 20.6447 32.8886C20.1073 32.6151 19.5728 32.3216 19.0412 32.0091C18.5086 31.6944 18.0242 31.3428 17.587 30.9555C17.1517 30.5694 16.8226 30.1285 16.6005 29.6341C16.3774 29.1374 16.3185 28.5627 16.4236 27.9109C16.5514 27.0627 16.8795 26.3506 17.4062 25.7725C17.9329 25.1921 18.602 24.7491 19.4146 24.4421C20.2291 24.133 21.1262 23.9845 22.1068 23.9957C23.1493 23.9957 24.0346 24.1386 24.7637 24.4243C25.4918 24.7078 26.0528 25.066 26.4458 25.5002C26.8389 25.9354 27.0521 26.3752 27.0865 26.8216C27.1277 27.3908 26.9941 27.8261 26.6856 28.1296C26.3761 28.431 26.0253 28.5805 25.6323 28.5805C25.3984 28.5805 25.1695 28.5258 24.9445 28.4153C24.6379 28.2613 24.3962 28.0537 24.2213 27.7948C24.0454 27.5336 23.8961 27.2491 23.7732 26.9421C23.6494 26.633 23.5188 26.3372 23.3802 26.0537C23.2436 25.768 23.0629 25.5225 22.8378 25.3171C22.6148 25.1118 22.3122 24.9801 21.9299 24.9198C21.5153 24.8461 21.136 24.8607 20.7902 24.9645C20.4443 25.066 20.1613 25.2267 19.9412 25.4466C19.7231 25.6642 19.5993 25.9176 19.5679 26.2055C19.5364 26.5571 19.6582 26.8729 19.9334 27.152C20.2105 27.4287 20.5828 27.6966 21.0496 27.9555C21.5183 28.2145 22.0292 28.4778 22.5824 28.7457C23.1375 29.0113 23.6868 29.2982 24.2292 29.6073C24.7715 29.9142 25.252 30.258 25.6716 30.6386C26.0931 31.0203 26.4075 31.4589 26.6148 31.9555C26.8212 32.4499 26.8605 33.0169 26.7327 33.6564C26.5726 34.4901 26.2081 35.2033 25.6401 35.7948C25.0712 36.3874 24.3559 36.8417 23.4942 37.1564C22.6315 37.4689 21.6745 37.6252 20.6212 37.6252Z" fill="#351A57"/>
<path d="M27.0352 41.5045C26.8642 41.5045 26.7719 41.4019 26.7562 41.1965C26.7404 40.9911 26.8072 40.8327 26.9566 40.7233C27.0607 40.6396 27.1777 40.567 27.3064 40.5045C27.4557 40.4331 27.5795 40.3215 27.6798 40.1697C27.782 40.0202 27.838 39.8673 27.8488 39.7099L29.2833 30.576C29.3069 30.4309 29.2853 30.3338 29.2204 30.2858C29.1576 30.2356 29.0672 30.2099 28.9492 30.2099C28.8441 30.2099 28.7301 30.2188 28.6073 30.2367C28.4835 30.2545 28.3695 30.2635 28.2654 30.2635C28.1475 30.2523 28.0698 30.1898 28.0335 30.076C27.9962 29.9599 27.9991 29.8371 28.0414 29.7054C28.0826 29.5715 28.1632 29.4755 28.2811 29.4152C28.684 29.1719 29.1389 28.9844 29.6449 28.8527C30.1499 28.7188 30.6314 28.6519 31.0873 28.6519C31.2465 28.6519 31.4253 28.6608 31.6218 28.6786C31.8183 28.6965 31.9991 28.7523 32.1642 28.8438C32.3293 28.9331 32.4393 29.0804 32.4944 29.2858C33.1094 28.9498 33.753 28.7445 34.4241 28.6697C35.2652 28.5983 35.9668 28.7411 36.5308 29.0983C37.0938 29.4532 37.4917 29.9755 37.7256 30.6652C37.9614 31.3527 38.0046 32.1742 37.8553 33.1295C37.7059 34.0849 37.3964 34.9108 36.9277 35.6072C36.461 36.3014 35.895 36.826 35.2298 37.1831C34.5636 37.5369 33.8591 37.6842 33.1153 37.6251C32.9129 37.6005 32.7027 37.5514 32.4826 37.4777C32.2644 37.4063 32.0502 37.3103 31.838 37.1876L31.4568 39.7277C31.4017 40.0637 31.497 40.3282 31.7437 40.5224C31.7849 40.5492 31.8242 40.5804 31.8616 40.6161C31.8979 40.6519 31.9382 40.6876 31.9834 40.7233C32.0669 40.7947 32.0984 40.8907 32.0777 41.0135C32.0561 41.1351 32.008 41.2467 31.9323 41.3483C31.8586 41.4521 31.7633 41.5045 31.6454 41.5045H27.0352ZM32.4275 33.2947C32.3961 34.5983 32.4354 35.4934 32.5455 35.9777C32.6575 36.4599 32.9002 36.6641 33.2726 36.5894C33.5182 36.5425 33.7068 36.4007 33.8385 36.1652C33.9721 35.9309 34.0625 35.5603 34.1097 35.0536C34.1588 34.5447 34.1785 33.8483 34.1687 32.9644C34.1578 31.7679 34.1068 30.932 34.0154 30.4554C33.926 29.98 33.6951 29.7769 33.3236 29.8483C33.077 29.884 32.8923 30.0246 32.7695 30.2679C32.6486 30.509 32.5661 30.8706 32.5219 31.3527C32.4796 31.8349 32.4482 32.4822 32.4275 33.2947Z" fill="#351A57"/>
<path d="M40.6771 37.6251C39.9539 37.6251 39.3732 37.4253 38.936 37.0269C38.5007 36.6285 38.3042 36.0916 38.3464 35.4153C38.4015 34.749 38.5822 34.1988 38.8888 33.7635C39.1973 33.3293 39.5825 32.9856 40.0443 32.7323C40.5081 32.4767 40.9954 32.2981 41.5064 32.1965C42.0173 32.0927 42.4968 32.0403 42.9449 32.0403C43.5285 32.0403 43.9707 32.1017 44.2694 32.2233L44.3637 31.6073C44.4816 30.9198 44.4944 30.4097 44.403 30.076C44.3136 29.7434 44.0935 29.5704 43.7427 29.5581C43.3359 29.547 43.0559 29.6653 42.9016 29.9153C42.7493 30.1631 42.599 30.4599 42.4496 30.8081C42.3524 31.0381 42.1726 31.2166 41.9112 31.3439C41.6518 31.4722 41.3845 31.5358 41.1094 31.5358C40.7793 31.5358 40.4855 31.4488 40.229 31.2724C39.9745 31.0972 39.8851 30.8394 39.9618 30.5001C40.0767 29.9465 40.5091 29.4979 41.2588 29.1519C42.0104 28.807 42.9498 28.6407 44.0768 28.6519C44.8962 28.6519 45.6194 28.7702 46.2463 29.0046C46.8751 29.2401 47.3399 29.624 47.6415 30.1564C47.9451 30.6898 48.0277 31.3907 47.8891 32.259C47.7948 32.8874 47.6985 33.4856 47.6022 34.0537C47.5079 34.6229 47.4332 35.0883 47.3782 35.451C47.2937 36.0314 47.3743 36.3394 47.6179 36.3751C47.7359 36.3874 47.8518 36.3461 47.9677 36.2501C48.0857 36.1519 48.1928 36.1151 48.29 36.1385C48.3844 36.1631 48.4178 36.2535 48.3922 36.4108C48.3657 36.5693 48.2625 36.7412 48.0817 36.9287C47.9009 37.1139 47.6219 37.2758 47.2446 37.4153C46.8673 37.5548 46.374 37.6184 45.7668 37.6073C45.1822 37.595 44.6938 37.4566 44.3008 37.1921C43.9078 36.9242 43.7054 36.5247 43.6955 35.9912C43.3654 36.5247 42.9262 36.9309 42.3789 37.2099C41.8306 37.4867 41.2637 37.6251 40.6771 37.6251ZM42.0487 34.3617C41.9436 34.8081 41.9515 35.1809 42.0723 35.4778C42.1952 35.7724 42.4378 35.9142 42.7994 35.9019C43.161 35.8907 43.4243 35.7133 43.5894 35.3706C43.7545 35.0258 43.8803 34.6162 43.9667 34.143L44.1239 33.1474C44.0709 33.124 43.9805 33.0916 43.8527 33.0492C43.724 33.0046 43.5816 32.9823 43.4243 32.9823C43.1669 32.9823 42.9055 33.0704 42.6383 33.2456C42.373 33.422 42.1765 33.7936 42.0487 34.3617Z" fill="#351A57"/>
<path d="M53.0435 37.6249C51.7249 37.6249 50.7305 37.2409 50.0604 36.4731C49.3893 35.7052 49.1496 34.5914 49.3412 33.1293C49.4689 32.1505 49.7863 31.3258 50.2923 30.6561C50.7973 29.9842 51.4301 29.4798 52.1906 29.1427C52.9501 28.8034 53.7716 28.6338 54.6549 28.6338C55.7711 28.6338 56.6456 28.8682 57.2803 29.3347C57.9141 29.799 58.2039 30.3816 58.1489 31.0802C58.1175 31.5891 57.8954 32.0166 57.4847 32.3615C57.076 32.7041 56.5375 32.8391 55.8694 32.7677C55.4734 32.7208 55.1953 32.6059 55.0361 32.424C54.8789 32.2432 54.7885 32.0222 54.765 31.7633C54.7433 31.5021 54.7492 31.2354 54.7807 30.9641C54.8141 30.6907 54.8337 30.4452 54.8396 30.2275C54.8445 30.011 54.7905 29.8481 54.6785 29.7409C54.5684 29.6316 54.3533 29.6137 54.0339 29.6874C53.7873 29.7354 53.5603 29.9318 53.354 30.2766C53.1467 30.6193 52.9865 31.0601 52.8745 31.5981C52.7644 32.1371 52.7251 32.7264 52.7566 33.3659C52.7979 34.3336 52.9845 35.0255 53.3147 35.4418C53.6448 35.8592 54.086 36.0735 54.6392 36.0847C55.1393 36.0847 55.5913 35.9351 55.9951 35.6338C56.398 35.3302 56.7026 34.8949 56.907 34.3258C57.0425 33.9273 57.2607 33.7454 57.5594 33.7811C57.8679 33.8291 57.9485 34.0646 57.7991 34.4865C57.4159 35.6003 56.8126 36.4016 55.9873 36.8927C55.1639 37.3804 54.1833 37.6249 53.0435 37.6249Z" fill="#351A57"/>
<path d="M62.3619 37.6249C61.0432 37.6249 60.0489 37.2409 59.3788 36.4731C58.7077 35.7052 58.4679 34.5914 58.6595 33.1293C58.7873 32.1505 59.1046 31.3258 59.6107 30.6561C60.1157 29.9842 60.7485 29.4798 61.509 29.1427C62.2685 28.8034 63.0899 28.6338 63.9733 28.6338C64.7171 28.6338 65.3469 28.7543 65.8637 28.9954C66.3796 29.2365 66.7697 29.5612 67.035 29.9686C67.3022 30.3737 67.4358 30.8235 67.4358 31.3168C67.4358 31.838 67.2806 32.2833 66.9721 32.6516C66.6655 33.0177 66.2744 33.3235 65.8008 33.5668C65.3263 33.8079 64.8281 33.9865 64.3073 34.1025C63.7856 34.2164 63.3071 34.2722 62.8728 34.2722C62.6075 34.2722 62.3678 34.2543 62.1536 34.2186C62.2715 34.8827 62.4837 35.357 62.7903 35.6427C63.0988 35.9262 63.4879 36.0735 63.9575 36.0847C64.4577 36.0847 64.9097 35.9351 65.3135 35.6338C65.7163 35.3302 66.0209 34.8949 66.2253 34.3258C66.3609 33.9273 66.579 33.7454 66.8777 33.7811C67.1863 33.8291 67.2668 34.0646 67.1175 34.4865C66.7343 35.6003 66.131 36.4016 65.3056 36.8927C64.4822 37.3804 63.5016 37.6249 62.3619 37.6249ZM63.3523 29.6874C63.1057 29.7354 62.8816 29.9284 62.6802 30.2677C62.4778 30.6048 62.3186 31.0389 62.2007 31.5713C62.0848 32.1014 62.0376 32.6818 62.0592 33.3124C62.2921 33.3369 62.5603 33.3302 62.8649 33.2945C63.1685 33.2566 63.4525 33.1628 63.7178 33.0133C63.9851 32.8615 64.1757 32.6338 64.2916 32.3302C64.4822 31.8726 64.5569 31.4284 64.5156 30.9999C64.4734 30.5713 64.3486 30.2275 64.1423 29.9686C63.9349 29.7074 63.6716 29.6137 63.3523 29.6874Z" fill="#351A57"/>
<path d="M21.1856 36.9845C20.0586 36.9845 19.08 36.8394 18.2497 36.5515C17.4214 36.2602 16.7965 35.8551 16.375 35.3372C15.9554 34.8171 15.7776 34.2167 15.8404 33.5381C15.8925 33.0805 16.0733 32.7011 16.3828 32.3997C16.6913 32.0961 17.0529 31.9566 17.4676 31.9801C17.8292 31.9924 18.1131 32.095 18.3204 32.2881C18.5297 32.4823 18.6997 32.7245 18.8314 33.0158C18.965 33.3049 19.0927 33.6162 19.2165 33.9488C19.3394 34.2792 19.4848 34.5961 19.6528 34.8997C19.8228 35.2011 20.0576 35.4611 20.3563 35.681C20.655 35.8986 21.049 36.037 21.5393 36.0961C22.0817 36.1676 22.5573 36.1006 22.966 35.8953C23.3748 35.6899 23.643 35.3707 23.7717 34.9354C23.8896 34.5604 23.8385 34.2234 23.6185 33.922C23.4003 33.6185 23.078 33.3316 22.6516 33.0604C22.2271 32.7903 21.7457 32.5191 21.2092 32.2479C20.6717 31.9745 20.1372 31.681 19.6056 31.3685C19.0731 31.0537 18.5887 30.7022 18.1514 30.3149C17.7162 29.9287 17.387 29.4879 17.1649 28.9935C16.9419 28.4968 16.8829 27.922 16.9881 27.2703C17.1158 26.422 17.444 25.71 17.9707 25.1319C18.4973 24.5515 19.1664 24.1084 19.979 23.8015C20.7936 23.4924 21.6907 23.3439 22.6713 23.3551C23.7138 23.3551 24.5991 23.4979 25.3281 23.7836C26.0562 24.0671 26.6173 24.4254 27.0103 24.8595C27.4033 25.2948 27.6165 25.7345 27.6509 26.181C27.6922 26.7502 27.5586 27.1854 27.25 27.489C26.9405 27.7903 26.5897 27.9399 26.1967 27.9399C25.9629 27.9399 25.7339 27.8852 25.5089 27.7747C25.2024 27.6207 24.9606 27.4131 24.7857 27.1542C24.6099 26.893 24.4605 26.6084 24.3377 26.3015C24.2139 25.9924 24.0832 25.6966 23.9447 25.4131C23.8081 25.1274 23.6273 24.8819 23.4023 24.6765C23.1792 24.4711 22.8766 24.3395 22.4944 24.2792C22.0798 24.2055 21.7005 24.22 21.3546 24.3238C21.0088 24.4254 20.7258 24.5861 20.5057 24.806C20.2875 25.0236 20.1637 25.277 20.1323 25.5649C20.1009 25.9165 20.2227 26.2323 20.4978 26.5113C20.7749 26.7881 21.1473 27.056 21.614 27.3149C22.0827 27.5738 22.5936 27.8372 23.1468 28.1051C23.702 28.3707 24.2512 28.6575 24.7936 28.9667C25.336 29.2736 25.8165 29.6174 26.236 29.9979C26.6575 30.3796 26.972 30.8182 27.1793 31.3149C27.3856 31.8093 27.4249 32.3763 27.2972 33.0158C27.137 33.8495 26.7725 34.5627 26.2046 35.1542C25.6357 35.7468 24.9204 36.2011 24.0586 36.5158C23.1959 36.8283 22.2389 36.9845 21.1856 36.9845Z" fill="#C19EDD"/>
<path d="M27.5997 40.8639C27.4287 40.8639 27.3363 40.7612 27.3206 40.5559C27.3049 40.3505 27.3717 40.192 27.521 40.0827C27.6252 39.999 27.7421 39.9264 27.8708 39.8639C28.0202 39.7925 28.144 39.6809 28.2442 39.5291C28.3464 39.3795 28.4024 39.2266 28.4132 39.0693L29.8478 29.9353C29.8714 29.7902 29.8497 29.6932 29.7849 29.6452C29.722 29.5949 29.6316 29.5693 29.5137 29.5693C29.4086 29.5693 29.2946 29.5782 29.1718 29.5961C29.048 29.6139 28.934 29.6228 28.8298 29.6228C28.7119 29.6117 28.6343 29.5492 28.5979 29.4353C28.5606 29.3193 28.5636 29.1965 28.6058 29.0648C28.6471 28.9309 28.7276 28.8349 28.8456 28.7746C29.2484 28.5313 29.7033 28.3438 30.2094 28.2121C30.7144 28.0782 31.1959 28.0112 31.6518 28.0112C31.8109 28.0112 31.9898 28.0202 32.1863 28.038C32.3828 28.0559 32.5636 28.1117 32.7287 28.2032C32.8937 28.2925 33.0038 28.4398 33.0588 28.6452C33.6739 28.3092 34.3175 28.1039 34.9886 28.0291C35.8296 27.9577 36.5312 28.1005 37.0952 28.4577C37.6582 28.8126 38.0561 29.3349 38.29 30.0246C38.5258 30.7121 38.569 31.5336 38.4197 32.4889C38.2703 33.4443 37.9608 34.2702 37.4922 34.9666C37.0254 35.6608 36.4595 36.1853 35.7943 36.5425C35.1281 36.8963 34.4236 37.0436 33.6798 36.9844C33.4774 36.9599 33.2671 36.9108 33.047 36.8371C32.8289 36.7657 32.6147 36.6697 32.4024 36.5469L32.0212 39.0871C31.9662 39.4231 32.0615 39.6876 32.3081 39.8818C32.3494 39.9086 32.3887 39.9398 32.426 39.9755C32.4624 40.0112 32.5027 40.0469 32.5479 40.0827C32.6314 40.1541 32.6628 40.2501 32.6422 40.3728C32.6206 40.4945 32.5724 40.6061 32.4968 40.7077C32.4231 40.8115 32.3278 40.8639 32.2099 40.8639H27.5997ZM32.992 32.6541C32.9605 33.9577 32.9999 34.8527 33.1099 35.3371C33.2219 35.8193 33.4646 36.0235 33.837 35.9487C34.0826 35.9019 34.2713 35.7601 34.403 35.5246C34.5366 35.2902 34.627 34.9197 34.6741 34.413C34.7233 33.9041 34.7429 33.2077 34.7331 32.3237C34.7223 31.1273 34.6712 30.2914 34.5798 29.8148C34.4904 29.3394 34.2595 29.1362 33.8881 29.2077C33.6415 29.2434 33.4567 29.384 33.3339 29.6273C33.2131 29.8684 33.1305 30.23 33.0863 30.7121C33.0441 31.1943 33.0126 31.8416 32.992 32.6541Z" fill="#C19EDD"/>
<path d="M41.2415 36.9845C40.5184 36.9845 39.9377 36.7847 39.5004 36.3863C39.0651 35.9878 38.8686 35.451 38.9109 34.7747C38.9659 34.1084 39.1467 33.5581 39.4533 33.1229C39.7618 32.6887 40.147 32.345 40.6088 32.0916C41.0725 31.836 41.5599 31.6575 42.0708 31.5559C42.5818 31.4521 43.0612 31.3997 43.5093 31.3997C44.0929 31.3997 44.5351 31.461 44.8338 31.5827L44.9281 30.9666C45.046 30.2791 45.0588 29.7691 44.9674 29.4354C44.878 29.1028 44.6579 28.9298 44.3071 28.9175C43.9004 28.9064 43.6203 29.0247 43.4661 29.2747C43.3138 29.5224 43.1634 29.8193 43.0141 30.1675C42.9168 30.3974 42.737 30.576 42.4756 30.7032C42.2162 30.8316 41.949 30.8952 41.6739 30.8952C41.3437 30.8952 41.0499 30.8081 40.7935 30.6318C40.539 30.4566 40.4496 30.1988 40.5262 29.8595C40.6412 29.3059 41.0735 28.8573 41.8232 28.5113C42.5749 28.1664 43.5142 28.0001 44.6412 28.0113C45.4607 28.0113 46.1838 28.1296 46.8107 28.3639C47.4396 28.5994 47.9043 28.9834 48.206 29.5157C48.5096 30.0492 48.5921 30.7501 48.4536 31.6184C48.3593 32.2468 48.263 32.845 48.1667 33.4131C48.0723 33.9822 47.9977 34.4476 47.9426 34.8104C47.8581 35.3907 47.9387 35.6988 48.1824 35.7345C48.3003 35.7468 48.4162 35.7055 48.5322 35.6095C48.6501 35.5113 48.7572 35.4744 48.8545 35.4979C48.9488 35.5224 48.9822 35.6128 48.9567 35.7702C48.9301 35.9287 48.827 36.1006 48.6462 36.2881C48.4654 36.4733 48.1863 36.6351 47.809 36.7747C47.4317 36.9142 46.9385 36.9778 46.3312 36.9666C45.7466 36.9543 45.2583 36.816 44.8652 36.5514C44.4722 36.2836 44.2698 35.884 44.26 35.3506C43.9298 35.884 43.4906 36.2903 42.9433 36.5693C42.3951 36.8461 41.8281 36.9845 41.2415 36.9845ZM42.6132 33.7211C42.5081 34.1675 42.5159 34.5403 42.6368 34.8372C42.7596 35.1318 43.0023 35.2735 43.3639 35.2613C43.7255 35.2501 43.9888 35.0726 44.1539 34.73C44.3189 34.3851 44.4447 33.9756 44.5312 33.5023L44.6884 32.5068C44.6353 32.4834 44.5449 32.451 44.4172 32.4086C44.2885 32.3639 44.146 32.3416 43.9888 32.3416C43.7314 32.3416 43.47 32.4298 43.2027 32.605C42.9374 32.7814 42.7409 33.153 42.6132 33.7211Z" fill="#C19EDD"/>
<path d="M53.6079 36.9842C52.2893 36.9842 51.295 36.6003 50.6249 35.8325C49.9538 35.0646 49.714 33.9508 49.9056 32.4887C50.0334 31.5099 50.3507 30.6851 50.8568 30.0155C51.3618 29.3436 51.9946 28.8391 52.7551 28.5021C53.5146 28.1628 54.336 27.9932 55.2194 27.9932C56.3356 27.9932 57.21 28.2275 57.8448 28.6941C58.4785 29.1583 58.7684 29.7409 58.7134 30.4396C58.6819 30.9485 58.4599 31.376 58.0492 31.7208C57.6404 32.0635 57.102 32.1985 56.4338 32.1271C56.0378 32.0802 55.7598 31.9653 55.6006 31.7833C55.4434 31.6025 55.353 31.3816 55.3294 31.1226C55.3078 30.8615 55.3137 30.5947 55.3451 30.3235C55.3785 30.0501 55.3982 29.8045 55.4041 29.5869C55.409 29.3704 55.355 29.2075 55.2429 29.1003C55.1329 28.9909 54.9177 28.9731 54.5984 29.0467C54.3517 29.0947 54.1248 29.2912 53.9184 29.636C53.7111 29.9787 53.551 30.4195 53.4389 30.9575C53.3289 31.4965 53.2896 32.0858 53.321 32.7253C53.3623 33.6929 53.549 34.3849 53.8791 34.8012C54.2093 35.2186 54.6505 35.4329 55.2036 35.4441C55.7038 35.4441 56.1557 35.2945 56.5596 34.9932C56.9624 34.6896 57.267 34.2543 57.4714 33.6851C57.607 33.2867 57.8251 33.1048 58.1238 33.1405C58.4324 33.1885 58.5129 33.424 58.3636 33.8458C57.9804 34.9597 57.3771 35.761 56.5517 36.2521C55.7283 36.7398 54.7477 36.9842 53.6079 36.9842Z" fill="#C19EDD"/>
<path d="M62.9263 36.9842C61.6077 36.9842 60.6133 36.6003 59.9432 35.8325C59.2721 35.0646 59.0324 33.9508 59.224 32.4887C59.3517 31.5099 59.6691 30.6851 60.1751 30.0155C60.6802 29.3436 61.3129 28.8391 62.0734 28.5021C62.833 28.1628 63.6544 27.9932 64.5377 27.9932C65.2815 27.9932 65.9114 28.1137 66.4282 28.3548C66.944 28.5958 67.3341 28.9206 67.5994 29.328C67.8667 29.7331 68.0003 30.1829 68.0003 30.6762C68.0003 31.1974 67.8451 31.6427 67.5365 32.011C67.23 32.3771 66.8389 32.6829 66.3653 32.9262C65.8907 33.1673 65.3926 33.3458 64.8718 33.4619C64.3501 33.5758 63.8715 33.6316 63.4372 33.6316C63.172 33.6316 62.9322 33.6137 62.718 33.578C62.8359 34.2421 63.0481 34.7164 63.3547 35.0021C63.6632 35.2856 64.0523 35.4329 64.522 35.4441C65.0221 35.4441 65.4741 35.2945 65.8779 34.9932C66.2808 34.6896 66.5854 34.2543 66.7898 33.6851C66.9254 33.2867 67.1435 33.1048 67.4422 33.1405C67.7507 33.1885 67.8313 33.424 67.6819 33.8458C67.2987 34.9597 66.6954 35.761 65.8701 36.2521C65.0467 36.7398 64.0661 36.9842 62.9263 36.9842ZM63.9167 29.0467C63.6701 29.0947 63.4461 29.2878 63.2447 29.6271C63.0423 29.9641 62.8831 30.3983 62.7652 30.9307C62.6492 31.4608 62.6021 32.0412 62.6237 32.6717C62.8565 32.6963 63.1248 32.6896 63.4294 32.6539C63.733 32.6159 64.017 32.5222 64.2823 32.3726C64.5495 32.2208 64.7401 31.9932 64.8561 31.6896C65.0467 31.232 65.1214 30.7878 65.0801 30.3592C65.0379 29.9307 64.9131 29.5869 64.7067 29.328C64.4994 29.0668 64.2361 28.9731 63.9167 29.0467Z" fill="#C19EDD"/>
<mask id="mask3_1_13261" style="mask-type:luminance" maskUnits="userSpaceOnUse" x="52" y="14" width="9" height="11">
<path d="M52.1055 14.126H60.9103V24.1282H52.1055V14.126Z" fill="white"/>
</mask>
<g mask="url(#mask3_1_13261)">
<path d="M60.9132 19.1293C60.9132 19.2923 60.9063 19.4563 60.8926 19.6193C60.8778 19.7822 60.8572 19.9441 60.8287 20.1048C60.8002 20.2655 60.7658 20.424 60.7236 20.5813C60.6813 20.7376 60.6332 20.8916 60.5782 21.0434C60.5231 21.1952 60.4612 21.3425 60.3934 21.4876C60.3256 21.6316 60.251 21.7722 60.1714 21.9083C60.0908 22.0445 60.0053 22.1762 59.9139 22.3023C59.8226 22.4295 59.7253 22.5501 59.6231 22.6662C59.5209 22.7822 59.4148 22.8916 59.3028 22.9954C59.1917 23.1003 59.0758 23.1974 58.9559 23.2878C58.8361 23.3793 58.7123 23.463 58.5855 23.5412C58.4578 23.6182 58.3281 23.6874 58.1944 23.751C58.0618 23.8135 57.9252 23.8682 57.7877 23.9162C57.6501 23.963 57.5096 24.0032 57.3681 24.0356C57.2266 24.0668 57.0841 24.0914 56.9407 24.107C56.7972 24.1237 56.6538 24.1316 56.5093 24.1316C56.3649 24.1316 56.2214 24.1237 56.078 24.107C55.9336 24.0914 55.7911 24.0668 55.6496 24.0356C55.5081 24.0032 55.3686 23.963 55.231 23.9162C55.0925 23.8682 54.9569 23.8135 54.8242 23.751C54.6906 23.6874 54.5599 23.6182 54.4332 23.5412C54.3064 23.463 54.1826 23.3793 54.0627 23.2878C53.9429 23.1974 53.8269 23.1003 53.7149 22.9954C53.6039 22.8916 53.4968 22.7822 53.3946 22.6662C53.2934 22.5501 53.1961 22.4295 53.1047 22.3023C53.0134 22.1762 52.9279 22.0445 52.8473 21.9083C52.7677 21.7722 52.693 21.6316 52.6252 21.4876C52.5574 21.3425 52.4955 21.1952 52.4405 21.0434C52.3855 20.8916 52.3364 20.7376 52.2951 20.5813C52.2529 20.424 52.2175 20.2655 52.19 20.1048C52.1615 19.9441 52.1408 19.7822 52.1261 19.6193C52.1123 19.4563 52.1055 19.2923 52.1055 19.1293C52.1055 18.9653 52.1123 18.8012 52.1261 18.6383C52.1408 18.4753 52.1615 18.3135 52.19 18.1528C52.2175 17.992 52.2529 17.8336 52.2951 17.6773C52.3364 17.52 52.3855 17.3659 52.4405 17.2141C52.4955 17.0635 52.5574 16.915 52.6252 16.7711C52.693 16.626 52.7677 16.4865 52.8473 16.3492C52.9279 16.213 53.0134 16.0824 53.1047 15.9552C53.1961 15.8291 53.2934 15.7075 53.3946 15.5914C53.4968 15.4753 53.6039 15.3659 53.7149 15.2621C53.8269 15.1583 53.9429 15.0601 54.0627 14.9697C54.1826 14.8782 54.3064 14.7945 54.4332 14.7175C54.5599 14.6394 54.6906 14.5702 54.8242 14.5077C54.9569 14.4441 55.0925 14.3894 55.231 14.3414C55.3686 14.2945 55.5081 14.2543 55.6496 14.2231C55.7911 14.1907 55.9336 14.1662 56.078 14.1505C56.2214 14.1349 56.3649 14.126 56.5093 14.126C56.6538 14.126 56.7972 14.1349 56.9407 14.1505C57.0841 14.1662 57.2266 14.1907 57.3681 14.2231C57.5096 14.2543 57.6501 14.2945 57.7877 14.3414C57.9252 14.3894 58.0618 14.4441 58.1944 14.5077C58.3281 14.5702 58.4578 14.6394 58.5855 14.7175C58.7123 14.7945 58.8361 14.8782 58.9559 14.9697C59.0758 15.0601 59.1917 15.1583 59.3028 15.2621C59.4148 15.3659 59.5209 15.4753 59.6231 15.5914C59.7253 15.7075 59.8226 15.8291 59.9139 15.9552C60.0053 16.0824 60.0908 16.213 60.1714 16.3492C60.251 16.4865 60.3256 16.626 60.3934 16.7711C60.4612 16.915 60.5231 17.0635 60.5782 17.2141C60.6332 17.3659 60.6813 17.52 60.7236 17.6773C60.7658 17.8336 60.8002 17.992 60.8287 18.1528C60.8572 18.3135 60.8778 18.4753 60.8926 18.6383C60.9063 18.8012 60.9132 18.9653 60.9132 19.1293Z" fill="#341A55"/>
</g>
<path d="M55.9825 18.0592C55.9825 18.2311 55.9727 18.3963 55.9511 18.5559C55.9305 18.7144 55.901 18.855 55.8627 18.9766C55.8244 19.0983 55.7801 19.192 55.729 19.2579C55.6789 19.3237 55.6269 19.3572 55.5718 19.3572C55.5178 19.3572 55.4657 19.3237 55.4146 19.2579C55.3645 19.192 55.3203 19.0983 55.282 18.9766C55.2437 18.855 55.2142 18.7144 55.1926 18.5559C55.1719 18.3963 55.1611 18.2311 55.1611 18.0592C55.1611 17.8873 55.1719 17.7211 55.1926 17.5626C55.2142 17.403 55.2437 17.2635 55.282 17.1418C55.3203 17.0202 55.3645 16.9264 55.4146 16.8606C55.4657 16.7947 55.5178 16.7612 55.5718 16.7612C55.6269 16.7612 55.6789 16.7947 55.729 16.8606C55.7801 16.9264 55.8244 17.0202 55.8627 17.1418C55.901 17.2635 55.9305 17.403 55.9511 17.5626C55.9727 17.7211 55.9825 17.8873 55.9825 18.0592Z" fill="#341A55"/>
<path d="M57.8566 18.0592C57.8566 18.2311 57.8467 18.3963 57.8251 18.5559C57.8045 18.7144 57.775 18.855 57.7367 18.9766C57.6984 19.0983 57.6542 19.192 57.6031 19.2579C57.553 19.3237 57.5009 19.3572 57.4459 19.3572C57.3918 19.3572 57.3397 19.3237 57.2887 19.2579C57.2385 19.192 57.1943 19.0983 57.156 18.9766C57.1177 18.855 57.0882 18.7144 57.0666 18.5559C57.046 18.3963 57.0352 18.2311 57.0352 18.0592C57.0352 17.8873 57.046 17.7211 57.0666 17.5626C57.0882 17.403 57.1177 17.2635 57.156 17.1418C57.1943 17.0202 57.2385 16.9264 57.2887 16.8606C57.3397 16.7947 57.3918 16.7612 57.4459 16.7612C57.5009 16.7612 57.553 16.7947 57.6031 16.8606C57.6542 16.9264 57.6984 17.0202 57.7367 17.1418C57.775 17.2635 57.8045 17.403 57.8251 17.5626C57.8467 17.7211 57.8566 17.8873 57.8566 18.0592Z" fill="#341A55"/>
<path d="M59.1837 19.8247C58.8722 19.8136 58.772 19.5837 58.7671 19.5703C58.7386 19.4988 58.6649 19.4665 58.601 19.4977C58.5362 19.529 58.5077 19.6138 58.5352 19.6863C58.5391 19.6953 58.5853 19.8102 58.6993 19.9185C58.4822 20.2901 57.6951 21.4721 56.459 21.4721C55.224 21.4721 54.4988 20.2511 54.3033 19.8705C54.3642 19.8169 54.4242 19.7488 54.4811 19.6573C54.5214 19.5926 54.5077 19.5022 54.4497 19.4564C54.3927 19.4118 54.3141 19.4263 54.2738 19.491C54.094 19.7812 53.87 19.7488 53.8582 19.7477C53.7904 19.7343 53.7246 19.7879 53.7128 19.8649C53.701 19.943 53.7472 20.0178 53.8159 20.0312C53.8199 20.0323 53.8454 20.0368 53.8867 20.0368C53.9339 20.0368 54.0007 20.0301 54.0773 20.0044C54.2846 20.4185 55.0648 21.76 56.459 21.76C57.8533 21.76 58.6964 20.4564 58.9214 20.0613C58.9941 20.0892 59.0776 20.1093 59.1758 20.1127C59.1768 20.1127 59.1788 20.1127 59.1788 20.1127C59.2476 20.1127 59.3036 20.0513 59.3055 19.9732C59.3075 19.8939 59.2535 19.827 59.1837 19.8247Z" fill="#341A55"/>
<mask id="mask4_1_13261" style="mask-type:luminance" maskUnits="userSpaceOnUse" x="52" y="13" width="10" height="11">
<path d="M52.5889 13.7188H61.3946V23.7199H52.5889V13.7188Z" fill="white"/>
</mask>
<g mask="url(#mask4_1_13261)">
<path d="M61.3976 18.721C61.3976 18.885 61.3897 19.048 61.376 19.2109C61.3622 19.3739 61.3406 19.5357 61.3121 19.6964C61.2846 19.8571 61.2492 20.0167 61.2079 20.173C61.1657 20.3292 61.1176 20.4844 61.0615 20.635C61.0065 20.7868 60.9456 20.9342 60.8768 21.0792C60.809 21.2232 60.7353 21.3638 60.6548 21.5C60.5752 21.6362 60.4887 21.7679 60.3973 21.894C60.306 22.0212 60.2097 22.1417 60.1075 22.2578C60.0053 22.3739 59.8982 22.4844 59.7872 22.5882C59.6751 22.692 59.5602 22.7891 59.4403 22.8806C59.3195 22.971 59.1966 23.0558 59.0689 23.1328C58.9421 23.2098 58.8115 23.2801 58.6788 23.3426C58.5452 23.4051 58.4096 23.4598 58.2711 23.5078C58.1335 23.5558 57.994 23.5949 57.8525 23.6272C57.711 23.6596 57.5685 23.683 57.4251 23.6998C57.2816 23.7154 57.1372 23.7232 56.9927 23.7232C56.8493 23.7232 56.7048 23.7154 56.5614 23.6998C56.4179 23.683 56.2755 23.6596 56.134 23.6272C55.9925 23.5949 55.853 23.5558 55.7144 23.5078C55.5769 23.4598 55.4413 23.4051 55.3076 23.3426C55.174 23.2801 55.0443 23.2098 54.9166 23.1328C54.7898 23.0558 54.666 22.971 54.5461 22.8806C54.4263 22.7891 54.3103 22.692 54.1993 22.5882C54.0873 22.4844 53.9812 22.3739 53.879 22.2578C53.7768 22.1417 53.6805 22.0212 53.5891 21.894C53.4968 21.7679 53.4113 21.6362 53.3317 21.5C53.2511 21.3638 53.1774 21.2232 53.1086 21.0792C53.0408 20.9342 52.9789 20.7868 52.9239 20.635C52.8689 20.4844 52.8208 20.3292 52.7785 20.173C52.7372 20.0167 52.7019 19.8571 52.6734 19.6964C52.6459 19.5357 52.6242 19.3739 52.6105 19.2109C52.5957 19.048 52.5889 18.885 52.5889 18.721C52.5889 18.5569 52.5957 18.394 52.6105 18.231C52.6242 18.067 52.6459 17.9051 52.6734 17.7444C52.7019 17.5837 52.7372 17.4252 52.7785 17.269C52.8208 17.1116 52.8689 16.9576 52.9239 16.8069C52.9789 16.6551 53.0408 16.5067 53.1086 16.3627C53.1774 16.2176 53.2511 16.0781 53.3317 15.942C53.4113 15.8058 53.4968 15.6741 53.5891 15.5469C53.6805 15.4208 53.7768 15.2991 53.879 15.183C53.9812 15.0681 54.0873 14.9576 54.1993 14.8538C54.3103 14.75 54.4263 14.6529 54.5461 14.5614C54.666 14.4699 54.7898 14.3862 54.9166 14.3092C55.0443 14.2321 55.174 14.1618 55.3076 14.0993C55.4413 14.0368 55.5769 13.981 55.7144 13.9342C55.853 13.8862 55.9925 13.846 56.134 13.8147C56.2755 13.7824 56.4179 13.7589 56.5614 13.7422C56.7048 13.7266 56.8493 13.7188 56.9927 13.7188C57.1372 13.7188 57.2816 13.7266 57.4251 13.7422C57.5685 13.7589 57.711 13.7824 57.8525 13.8147C57.994 13.846 58.1335 13.8862 58.2711 13.9342C58.4096 13.981 58.5452 14.0368 58.6788 14.0993C58.8115 14.1618 58.9421 14.2321 59.0689 14.3092C59.1966 14.3862 59.3195 14.4699 59.4403 14.5614C59.5602 14.6529 59.6751 14.75 59.7872 14.8538C59.8982 14.9576 60.0053 15.0681 60.1075 15.183C60.2097 15.2991 60.306 15.4208 60.3973 15.5469C60.4887 15.6741 60.5752 15.8058 60.6548 15.942C60.7353 16.0781 60.809 16.2176 60.8768 16.3627C60.9456 16.5067 61.0065 16.6551 61.0615 16.8069C61.1176 16.9576 61.1657 17.1116 61.2079 17.269C61.2492 17.4252 61.2846 17.5837 61.3121 17.7444C61.3406 17.9051 61.3622 18.067 61.376 18.231C61.3897 18.394 61.3976 18.5569 61.3976 18.721Z" fill="#FF8FCD"/>
</g>
<path d="M56.4669 17.6505C56.4669 17.8224 56.4561 17.9887 56.4355 18.1472C56.4148 18.3068 56.3854 18.4463 56.3461 18.5679C56.3077 18.6896 56.2635 18.7833 56.2134 18.8492C56.1633 18.915 56.1103 18.9485 56.0562 18.9485C56.0012 18.9485 55.9491 18.915 55.899 18.8492C55.8489 18.7833 55.8047 18.6896 55.7654 18.5679C55.7271 18.4463 55.6976 18.3068 55.6769 18.1472C55.6563 17.9887 55.6455 17.8224 55.6455 17.6505C55.6455 17.4787 55.6563 17.3135 55.6769 17.1539C55.6976 16.9954 55.7271 16.8548 55.7654 16.7331C55.8047 16.6115 55.8489 16.5177 55.899 16.4519C55.9491 16.386 56.0012 16.3525 56.0562 16.3525C56.1103 16.3525 56.1633 16.386 56.2134 16.4519C56.2635 16.5177 56.3077 16.6115 56.3461 16.7331C56.3854 16.8548 56.4148 16.9954 56.4355 17.1539C56.4561 17.3135 56.4669 17.4787 56.4669 17.6505Z" fill="#1E1B1C"/>
<path d="M58.3409 17.6505C58.3409 17.8224 58.3301 17.9887 58.3095 18.1472C58.2889 18.3068 58.2594 18.4463 58.2201 18.5679C58.1818 18.6896 58.1376 18.7833 58.0874 18.8492C58.0373 18.915 57.9843 18.9485 57.9302 18.9485C57.8752 18.9485 57.8231 18.915 57.773 18.8492C57.7229 18.7833 57.6787 18.6896 57.6394 18.5679C57.6011 18.4463 57.5716 18.3068 57.551 18.1472C57.5303 17.9887 57.5195 17.8224 57.5195 17.6505C57.5195 17.4787 57.5303 17.3135 57.551 17.1539C57.5716 16.9954 57.6011 16.8548 57.6394 16.7331C57.6787 16.6115 57.7229 16.5177 57.773 16.4519C57.8231 16.386 57.8752 16.3525 57.9302 16.3525C57.9843 16.3525 58.0373 16.386 58.0874 16.4519C58.1376 16.5177 58.1818 16.6115 58.2201 16.7331C58.2594 16.8548 58.2889 16.9954 58.3095 17.1539C58.3301 17.3135 58.3409 17.4787 58.3409 17.6505Z" fill="#1E1B1C"/>
<path d="M59.6671 19.4162C59.3566 19.4061 59.2564 19.1751 59.2505 19.1617C59.222 19.0903 59.1483 19.0579 59.0844 19.0892C59.0206 19.1204 58.9911 19.2052 59.0186 19.2778C59.0225 19.2867 59.0687 19.4017 59.1827 19.511C58.9665 19.8827 58.1785 21.0635 56.9434 21.0635C55.7074 21.0635 54.9832 19.8425 54.7867 19.4619C54.8476 19.4095 54.9085 19.3403 54.9645 19.2488C55.0048 19.184 54.9911 19.0936 54.9341 19.0479C54.8771 19.0032 54.7975 19.0188 54.7572 19.0836C54.5784 19.3726 54.3544 19.3414 54.3416 19.3392C54.2748 19.3258 54.2089 19.3793 54.1972 19.4563C54.1854 19.5345 54.2315 19.6092 54.3003 19.6226C54.3033 19.6238 54.3298 19.6282 54.3701 19.6282C54.4172 19.6282 54.4841 19.6215 54.5617 19.5959C54.769 20.0099 55.5492 21.3514 56.9434 21.3514C58.3377 21.3514 59.1807 20.049 59.4057 19.6528C59.4775 19.6807 59.561 19.7008 59.6592 19.7041C59.6612 19.7041 59.6622 19.7041 59.6632 19.7041C59.731 19.7041 59.787 19.6427 59.7899 19.5646C59.7919 19.4854 59.7369 19.4195 59.6671 19.4162Z" fill="#1E1B1C"/>
</svg>
