<svg width="172" height="174" viewBox="0 0 172 174" fill="none" xmlns="http://www.w3.org/2000/svg">
<mask id="mask0_1_10789" style="mask-type:luminance" maskUnits="userSpaceOnUse" x="13" y="41" width="81" height="79">
<path d="M13.7598 41.2959H93.5678V119.248H13.7598V41.2959Z" fill="white"/>
</mask>
<g mask="url(#mask0_1_10789)">
<mask id="mask1_1_10789" style="mask-type:luminance" maskUnits="userSpaceOnUse" x="7" y="30" width="104" height="93">
<path d="M25.2209 30.4824L110.526 52.6058L92.8437 122.385L7.53711 100.262L25.2209 30.4824Z" fill="white"/>
</mask>
<g mask="url(#mask1_1_10789)">
<mask id="mask2_1_10789" style="mask-type:luminance" maskUnits="userSpaceOnUse" x="7" y="30" width="104" height="93">
<path d="M110.588 52.6219L25.2834 30.4985L7.59961 100.278L92.9062 122.401L110.588 52.6219Z" fill="white"/>
</mask>
<g mask="url(#mask2_1_10789)">
<path fill-rule="evenodd" clip-rule="evenodd" d="M64.8884 114.914C74.9809 117.531 84.7634 118.785 93.5336 118.804C87.6462 118.205 81.4667 117.103 75.1672 115.469C43.5891 107.28 20.9783 88.8483 24.6655 74.2994C27.1739 64.4032 41.208 58.8569 59.8736 58.895C36.2469 56.4771 17.3394 62.0995 14.3867 73.7502C10.7013 88.2937 33.3121 106.725 64.8884 114.914ZM77.9461 58.9258L78.0017 58.7119C65.3955 55.444 65.0049 53.1367 67.9486 41.5221L67.7372 41.4678C64.7935 53.0823 63.3494 54.9129 50.7432 51.6432L50.6895 51.857C63.2957 55.1268 63.6916 57.4287 60.7497 69.0432L60.9611 69.0975C63.903 57.483 65.3399 55.656 77.9461 58.9258Z" fill="#633796"/>
</g>
</g>
</g>
<path d="M61.3706 72.3033C61.3365 70.8207 61.6644 69.57 62.3524 68.555C63.0404 67.5364 63.981 66.7697 65.1761 66.2568C66.3693 65.7457 67.7166 65.4883 69.2181 65.4883C70.483 65.4883 71.5866 65.6732 72.5291 66.0393C73.4697 66.4072 74.2204 66.8984 74.7794 67.511C75.342 68.1255 75.6896 68.807 75.8186 69.5555C75.9422 70.344 75.7971 71.0182 75.3814 71.5783C74.9657 72.1347 74.3852 72.5969 73.6399 72.963C72.8982 73.3255 72.0991 73.5938 71.2391 73.7678C70.3791 73.9418 69.5782 74.0288 68.8382 74.0288C68.3688 74.0288 67.9532 74.0034 67.5912 73.949C67.9675 74.955 68.4602 75.6727 69.0676 76.1023C69.6732 76.5337 70.3665 76.7584 71.1459 76.7765C71.9952 76.7765 72.7297 76.55 73.3461 76.095C73.9624 75.6365 74.3602 74.9767 74.5429 74.1158C74.6862 73.5122 75.0105 73.2367 75.5176 73.2893C76.0228 73.3618 76.2217 73.7207 76.1124 74.3623C75.7684 76.0443 74.9532 77.2587 73.6686 78.0018C72.3821 78.7413 70.7732 79.111 68.8382 79.111C66.5915 79.111 64.7998 78.531 63.4632 77.371C62.1249 76.2074 61.4279 74.5182 61.3706 72.3033ZM68.4584 67.0833C68.0606 67.1558 67.731 67.4494 67.4694 67.9605C67.206 68.4735 67.0466 69.1332 66.9892 69.9398C66.9355 70.7482 67.0107 71.6254 67.2114 72.5715C67.6271 72.6114 68.0821 72.6042 68.5802 72.5498C69.0765 72.4918 69.528 72.3504 69.9347 72.122C70.345 71.8955 70.612 71.5529 70.7374 71.0925C70.9381 70.3965 70.947 69.7259 70.7661 69.077C70.5833 68.4245 70.2859 67.9025 69.8702 67.511C69.4546 67.1159 68.9834 66.9727 68.4584 67.0833Z" fill="#351A57"/>
<path d="M78.1777 67.9604C77.977 67.9423 77.8301 67.8444 77.7405 67.6704C77.6491 67.4964 77.6204 67.3115 77.6545 67.1121C77.6921 66.9091 77.8014 66.7623 77.9842 66.6699C78.6005 66.3038 79.3834 66.021 80.3348 65.8216C81.2844 65.6186 82.2017 65.5171 83.0868 65.5171C83.7748 65.5171 84.3356 65.5787 84.771 65.6984C85.2046 65.8144 85.5307 66.0609 85.7457 66.4379C85.9642 66.8149 86.0753 67.3949 86.0753 68.1779C86.5806 67.3768 87.2453 66.7333 88.0677 66.2494C88.8936 65.7618 89.7948 65.5081 90.7695 65.4881C92.2172 65.4555 93.3208 65.6676 94.0805 66.1261C94.8437 66.5811 95.3239 67.3206 95.521 68.3446C96.0119 67.5036 96.6838 66.8221 97.5348 66.3001C98.3841 65.7781 99.3068 65.5081 100.301 65.4881C102.021 65.4555 103.261 65.7709 104.021 66.4379C104.78 67.1049 105.16 68.1996 105.16 69.7221V75.7614H105.189V76.0369C105.189 76.5299 105.413 76.9323 105.862 77.2404C105.952 77.2803 106.038 77.3274 106.12 77.3854C106.201 77.4398 106.28 77.4923 106.357 77.5449C106.59 77.7098 106.658 77.9491 106.558 78.2626C106.457 78.5726 106.264 78.7266 105.977 78.7266H101.519C100.849 78.7266 100.344 78.5998 100 78.3424C99.6562 78.0868 99.4143 77.7479 99.2763 77.3274C99.1419 76.9069 99.0685 76.4683 99.0542 76.0079L99.0757 71.5564C99.0757 71.0634 99.0703 70.5704 99.0613 70.0774C99.0559 69.5844 98.9753 69.1693 98.8177 68.8304C98.6636 68.4878 98.3697 68.3265 97.9362 68.3446C97.5384 68.3446 97.1693 68.5114 96.8253 68.8449C96.4813 69.1748 96.2036 69.5753 95.994 70.0484C95.7879 70.5233 95.6661 70.9981 95.6285 71.4766V76.0369C95.6285 76.5498 95.865 76.9504 96.338 77.2404C96.4276 77.2803 96.51 77.3274 96.5817 77.3854C96.6533 77.4398 96.725 77.4923 96.7967 77.5449C97.0349 77.7098 97.1084 77.9491 97.0188 78.2626C96.9274 78.5726 96.7357 78.7266 96.4455 78.7266H91.9663C91.3159 78.7266 90.8143 78.5998 90.4613 78.3424C90.1066 78.0868 89.8665 77.7479 89.7375 77.3274C89.6121 76.9069 89.5404 76.4683 89.5225 76.0079V71.5564C89.5404 71.0634 89.5404 70.5704 89.5225 70.0774C89.5028 69.5844 89.4168 69.1693 89.2645 68.8304C89.1104 68.4878 88.8166 68.3265 88.383 68.3446C87.9673 68.3446 87.5821 68.5295 87.2292 68.8956C86.8744 69.2636 86.5931 69.7076 86.3835 70.2296C86.1774 70.7516 86.0753 71.2591 86.0753 71.7521V76.0369C86.0753 76.2743 86.1416 76.4991 86.276 76.7111C86.4139 76.9196 86.5806 77.0954 86.7777 77.2404C86.8672 77.2803 86.9497 77.3274 87.0213 77.3854C87.0966 77.4398 87.1718 77.4923 87.2435 77.5449C87.4961 77.7098 87.5732 77.9491 87.4728 78.2626C87.3725 78.5726 87.179 78.7266 86.8923 78.7266H79.0448C78.7725 78.7266 78.5862 78.5726 78.4858 78.2626C78.3855 77.9491 78.4536 77.7098 78.6937 77.5449C78.7832 77.4923 78.8728 77.4398 78.9588 77.3854C79.0484 77.3274 79.1398 77.273 79.2312 77.2186C79.7221 76.9776 79.9693 76.5843 79.9693 76.0369V68.4316C79.9693 68.2105 79.9084 68.0619 79.7902 67.9894C79.6701 67.9169 79.5124 67.8806 79.3172 67.8806C79.1344 67.8806 78.9445 67.8951 78.7438 67.9241C78.5467 67.9495 78.3586 67.9604 78.1777 67.9604Z" fill="#351A57"/>
<path d="M62.3305 71.3326C62.2965 69.85 62.6244 68.5993 63.3124 67.5843C64.0004 66.5657 64.941 65.799 66.136 65.2861C67.3293 64.775 68.6766 64.5176 70.178 64.5176C71.4429 64.5176 72.5466 64.7025 73.489 65.0686C74.4297 65.4365 75.1804 65.9277 75.7394 66.5403C76.3019 67.1548 76.6495 67.8363 76.7785 68.5848C76.9022 69.3733 76.757 70.0475 76.3414 70.6076C75.9257 71.164 75.3452 71.6262 74.5999 71.9923C73.8581 72.3548 73.059 72.6231 72.199 72.7971C71.339 72.9711 70.5382 73.0581 69.7982 73.0581C69.3288 73.0581 68.9131 73.0327 68.5512 72.9783C68.9274 73.9843 69.4202 74.702 70.0275 75.1316C70.6331 75.563 71.3265 75.7877 72.1059 75.8058C72.9551 75.8058 73.6897 75.5793 74.306 75.1243C74.9224 74.6658 75.3201 74.006 75.5029 73.1451C75.6462 72.5415 75.9705 72.266 76.4775 72.3186C76.9828 72.3911 77.1817 72.75 77.0724 73.3916C76.7284 75.0736 75.9132 76.288 74.6285 77.0311C73.3421 77.7706 71.7332 78.1403 69.7982 78.1403C67.5514 78.1403 65.7598 77.5603 64.4232 76.4003C63.0848 75.2367 62.3879 73.5475 62.3305 71.3326ZM69.4184 66.1126C69.0206 66.1851 68.6909 66.4787 68.4294 66.9898C68.166 67.5028 68.0065 68.1625 67.9492 68.9691C67.8954 69.7775 67.9707 70.6547 68.1714 71.6008C68.587 71.6407 69.0421 71.6335 69.5402 71.5791C70.0365 71.5211 70.488 71.3797 70.8947 71.1513C71.305 70.9248 71.5719 70.5822 71.6974 70.1218C71.898 69.4258 71.907 68.7552 71.726 68.1063C71.5433 67.4538 71.2459 66.9318 70.8302 66.5403C70.4145 66.1452 69.9433 66.002 69.4184 66.1126Z" fill="#C19EDD"/>
<path d="M79.1376 66.9897C78.9369 66.9715 78.79 66.8737 78.7004 66.6997C78.6091 66.5257 78.5804 66.3408 78.6144 66.1414C78.6521 65.9384 78.7614 65.7916 78.9441 65.6992C79.5604 65.333 80.3434 65.0503 81.2948 64.8509C82.2444 64.6479 83.1617 64.5464 84.0468 64.5464C84.7348 64.5464 85.2956 64.608 85.7309 64.7277C86.1645 64.8437 86.4906 65.0902 86.7056 65.4672C86.9242 65.8442 87.0353 66.4242 87.0353 67.2072C87.5405 66.406 88.2052 65.7626 89.0276 65.2787C89.8536 64.7911 90.7548 64.5374 91.7294 64.5174C93.1771 64.4848 94.2808 64.6969 95.0404 65.1554C95.8037 65.6104 96.2839 66.3499 96.4809 67.3739C96.9719 66.5329 97.6437 65.8514 98.4948 65.3294C99.344 64.8074 100.267 64.5374 101.261 64.5174C102.981 64.4848 104.221 64.8002 104.981 65.4672C105.74 66.1342 106.12 67.2289 106.12 68.7514V74.7907H106.149V75.0662C106.149 75.5592 106.373 75.9615 106.822 76.2697C106.912 76.3095 106.998 76.3567 107.08 76.4147C107.161 76.469 107.24 76.5216 107.317 76.5742C107.55 76.7391 107.618 76.9784 107.518 77.2919C107.417 77.6019 107.224 77.7559 106.937 77.7559H102.479C101.809 77.7559 101.304 77.629 100.96 77.3717C100.616 77.1161 100.374 76.7772 100.236 76.3567C100.102 75.9362 100.028 75.4975 100.014 75.0372L100.036 70.5857C100.036 70.0927 100.03 69.5997 100.021 69.1067C100.016 68.6137 99.9353 68.1986 99.7776 67.8597C99.6235 67.5171 99.3297 67.3558 98.8961 67.3739C98.4984 67.3739 98.1293 67.5407 97.7853 67.8742C97.4413 68.204 97.1636 68.6046 96.9539 69.0777C96.7479 69.5525 96.6261 70.0274 96.5884 70.5059V75.0662C96.5884 75.5791 96.8249 75.9797 97.2979 76.2697C97.3875 76.3095 97.4699 76.3567 97.5416 76.4147C97.6133 76.469 97.6849 76.5216 97.7566 76.5742C97.9949 76.7391 98.0684 76.9784 97.9788 77.2919C97.8874 77.6019 97.6957 77.7559 97.4054 77.7559H92.9263C92.2759 77.7559 91.7742 77.629 91.4213 77.3717C91.0665 77.1161 90.8264 76.7772 90.6974 76.3567C90.572 75.9362 90.5004 75.4975 90.4824 75.0372V70.5857C90.5004 70.0927 90.5004 69.5997 90.4824 69.1067C90.4627 68.6137 90.3767 68.1986 90.2244 67.8597C90.0704 67.5171 89.7765 67.3558 89.3429 67.3739C88.9273 67.3739 88.5421 67.5588 88.1891 67.9249C87.8344 68.2929 87.5531 68.7369 87.3434 69.2589C87.1374 69.7809 87.0353 70.2884 87.0353 70.7814V75.0662C87.0353 75.3036 87.1016 75.5284 87.2359 75.7404C87.3739 75.9489 87.5405 76.1247 87.7376 76.2697C87.8272 76.3095 87.9096 76.3567 87.9813 76.4147C88.0565 76.469 88.1318 76.5216 88.2034 76.5742C88.4561 76.7391 88.5331 76.9784 88.4328 77.2919C88.3324 77.6019 88.1389 77.7559 87.8523 77.7559H80.0048C79.7324 77.7559 79.5461 77.6019 79.4458 77.2919C79.3454 76.9784 79.4135 76.7391 79.6536 76.5742C79.7432 76.5216 79.8328 76.469 79.9188 76.4147C80.0084 76.3567 80.0997 76.3023 80.1911 76.2479C80.682 76.0069 80.9293 75.6135 80.9293 75.0662V67.4609C80.9293 67.2398 80.8684 67.0912 80.7501 67.0187C80.6301 66.9462 80.4724 66.9099 80.2771 66.9099C80.0944 66.9099 79.9044 66.9244 79.7038 66.9534C79.5067 66.9788 79.3186 66.9897 79.1376 66.9897Z" fill="#C19EDD"/>
<path d="M51.3609 102.399C49.3059 102.399 47.5214 102.163 46.0074 101.696C44.4971 101.223 43.3575 100.565 42.5889 99.7236C41.8239 98.879 41.4996 97.9039 41.6143 96.8019C41.7092 96.0587 42.0389 95.4425 42.6033 94.9531C43.1658 94.4601 43.8252 94.2336 44.5813 94.2716C45.2406 94.2916 45.7584 94.4583 46.1364 94.7719C46.5181 95.0872 46.828 95.4806 47.0681 95.9536C47.3118 96.4231 47.5447 96.9287 47.7704 97.4689C47.9944 98.0054 48.2596 98.5201 48.5659 99.0131C48.8759 99.5025 49.3041 99.9248 49.8488 100.282C50.3934 100.635 51.1119 100.86 52.0059 100.956C52.9949 101.072 53.8621 100.963 54.6074 100.63C55.3528 100.296 55.8419 99.778 56.0766 99.0711C56.2916 98.4621 56.1984 97.9147 55.7971 97.4254C55.3993 96.9324 54.8117 96.4666 54.0341 96.0261C53.2601 95.5875 52.3822 95.1471 51.4039 94.7066C50.4239 94.2626 49.4492 93.7859 48.4799 93.2784C47.5088 92.7672 46.6256 92.1963 45.8283 91.5674C45.0345 90.9402 44.4343 90.2243 44.0294 89.4214C43.6227 88.6148 43.5152 87.6814 43.7069 86.6229C43.9398 85.2454 44.5383 84.089 45.4986 83.1501C46.4589 82.2076 47.679 81.4881 49.1608 80.9896C50.6461 80.4876 52.2818 80.2465 54.0699 80.2646C55.9709 80.2646 57.5852 80.4966 58.9146 80.9606C60.2422 81.421 61.2653 82.0028 61.9819 82.7079C62.6986 83.4147 63.0874 84.1289 63.1501 84.8539C63.2253 85.7782 62.9817 86.4851 62.4191 86.9781C61.8547 87.4675 61.2151 87.7104 60.4984 87.7104C60.072 87.7104 59.6546 87.6216 59.2443 87.4421C58.6853 87.192 58.2445 86.8549 57.9256 86.4344C57.6049 86.0102 57.3325 85.5481 57.1086 85.0496C56.8828 84.5476 56.6445 84.0672 56.3919 83.6069C56.1429 83.1429 55.8132 82.7441 55.4029 82.4106C54.9962 82.0771 54.4444 81.8632 53.7474 81.7654C52.9913 81.6457 52.2998 81.6693 51.6691 81.8379C51.0384 82.0028 50.5224 82.2638 50.1211 82.6209C49.7233 82.9743 49.4976 83.3857 49.4403 83.8534C49.3829 84.4243 49.6051 84.9372 50.1068 85.3904C50.612 85.8399 51.291 86.2749 52.1421 86.6954C52.9967 87.1159 53.9284 87.5436 54.9371 87.9786C55.9494 88.41 56.9509 88.8758 57.9399 89.3779C58.9289 89.8763 59.805 90.4346 60.5701 91.0526C61.3387 91.6725 61.9121 92.3848 62.2901 93.1914C62.6663 93.9943 62.738 94.9151 62.5051 95.9536C62.213 97.3076 61.5483 98.4657 60.5128 99.4264C59.4754 100.389 58.171 101.126 56.5998 101.638C55.0267 102.145 53.2816 102.399 51.3609 102.399Z" fill="#351A57"/>
<path d="M63.0579 108.699C62.7461 108.699 62.5777 108.533 62.549 108.199C62.5204 107.866 62.6422 107.608 62.9145 107.431C63.1044 107.295 63.3176 107.177 63.5524 107.075C63.8247 106.959 64.0504 106.778 64.2332 106.532C64.4195 106.289 64.5216 106.04 64.5414 105.785L67.1572 90.9514C67.2002 90.7158 67.1608 90.5581 67.0425 90.4802C66.9279 90.3986 66.763 90.3569 66.548 90.3569C66.3563 90.3569 66.1485 90.3714 65.9245 90.4004C65.6988 90.4294 65.4909 90.4439 65.301 90.4439C65.086 90.4258 64.9445 90.3243 64.8782 90.1394C64.8101 89.9509 64.8155 89.7515 64.8925 89.5377C64.9678 89.3202 65.1147 89.1643 65.3297 89.0664C66.0643 88.6713 66.8938 88.3668 67.8165 88.1529C68.7374 87.9354 69.6154 87.8267 70.4467 87.8267C70.7369 87.8267 71.063 87.8412 71.4214 87.8702C71.7797 87.8992 72.1094 87.9898 72.4104 88.1384C72.7114 88.2834 72.912 88.5227 73.0124 88.8562C74.1339 88.3106 75.3075 87.9771 76.5312 87.8557C78.0649 87.7397 79.3441 87.9717 80.3725 88.5517C81.3991 89.128 82.1248 89.9763 82.5512 91.0964C82.9812 92.2129 83.06 93.5469 82.7877 95.0984C82.5154 96.6499 81.951 97.9912 81.0964 99.1222C80.2453 100.25 79.2133 101.101 78.0004 101.681C76.7856 102.256 75.501 102.495 74.1447 102.399C73.7756 102.359 73.3922 102.28 72.9909 102.16C72.5931 102.044 72.2025 101.888 71.8155 101.689L71.1204 105.814C71.02 106.359 71.1938 106.789 71.6435 107.104C71.7188 107.148 71.7904 107.199 71.8585 107.257C71.9248 107.315 71.9983 107.373 72.0807 107.431C72.233 107.547 72.2903 107.703 72.2527 107.902C72.2133 108.099 72.1255 108.281 71.9875 108.446C71.8531 108.614 71.6794 108.699 71.4644 108.699H63.0579ZM72.8905 95.3667C72.8332 97.4837 72.9049 98.9373 73.1055 99.7239C73.3098 100.507 73.7523 100.839 74.4314 100.717C74.8793 100.641 75.2233 100.411 75.4634 100.028C75.707 99.6478 75.8719 99.046 75.9579 98.2232C76.0474 97.3967 76.0833 96.2657 76.0654 94.8302C76.0456 92.8872 75.9525 91.5296 75.7859 90.7557C75.6228 89.9835 75.2018 89.6537 74.5245 89.7697C74.0748 89.8277 73.738 90.056 73.514 90.4512C73.2936 90.8427 73.1431 91.4299 73.0625 92.2129C72.9855 92.9959 72.9281 94.0472 72.8905 95.3667Z" fill="#351A57"/>
<path d="M87.9329 102.399C86.6142 102.399 85.5554 102.075 84.7581 101.428C83.9644 100.78 83.606 99.9087 83.6831 98.8103C83.7834 97.7282 84.1131 96.8347 84.6721 96.1278C85.2347 95.4227 85.937 94.8645 86.7791 94.453C87.6247 94.038 88.5134 93.748 89.4451 93.583C90.3767 93.4145 91.2511 93.3293 92.0681 93.3293C93.1323 93.3293 93.9386 93.429 94.4832 93.6265L94.6552 92.626C94.8702 91.5095 94.8935 90.6812 94.7269 90.1393C94.5639 89.5992 94.1625 89.3182 93.5229 89.2983C92.7812 89.2802 92.2705 89.4723 91.9892 89.8783C91.7115 90.2807 91.4374 90.7628 91.1651 91.3283C90.9877 91.7017 90.6598 91.9917 90.1832 92.1983C89.7102 92.4067 89.2229 92.51 88.7212 92.51C88.1192 92.51 87.5835 92.3687 87.1159 92.0823C86.6519 91.7977 86.4888 91.379 86.6286 90.828C86.8382 89.929 87.6265 89.2004 88.9936 88.6385C90.3642 88.0785 92.077 87.8084 94.1321 87.8265C95.6263 87.8265 96.945 88.0187 98.0881 88.3993C99.2347 88.7817 100.082 89.4052 100.632 90.2698C101.186 91.1362 101.336 92.2744 101.084 93.6845C100.912 94.705 100.736 95.6765 100.561 96.599C100.389 97.5234 100.252 98.2792 100.152 98.8683C99.998 99.8108 100.145 100.311 100.589 100.369C100.804 100.389 101.016 100.322 101.227 100.166C101.442 100.007 101.637 99.9467 101.815 99.9848C101.987 100.025 102.048 100.171 102.001 100.427C101.953 100.684 101.765 100.964 101.435 101.268C101.105 101.569 100.596 101.832 99.9084 102.058C99.2204 102.285 98.321 102.388 97.2137 102.37C96.1477 102.35 95.2572 102.125 94.5406 101.696C93.8239 101.261 93.4548 100.612 93.4369 99.7455C92.8349 100.612 92.034 101.272 91.0361 101.725C90.0363 102.174 89.0025 102.399 87.9329 102.399ZM90.4341 97.0993C90.2424 97.8243 90.2567 98.4297 90.4771 98.9118C90.701 99.3903 91.1436 99.6205 91.8029 99.6005C92.4622 99.5824 92.9424 99.2942 93.2434 98.7378C93.5444 98.1777 93.7737 97.5125 93.9314 96.744L94.2181 95.1273C94.1213 95.0892 93.9565 95.0367 93.7236 94.9678C93.4889 94.8953 93.2291 94.859 92.9424 94.859C92.473 94.859 91.9964 95.0022 91.5091 95.2868C91.0253 95.5732 90.667 96.1767 90.4341 97.0993Z" fill="#351A57"/>
<path d="M110.483 102.399C108.078 102.399 106.265 101.775 105.043 100.528C103.819 99.2814 103.382 97.4725 103.732 95.0981C103.965 93.5086 104.543 92.1691 105.466 91.0816C106.387 89.9905 107.541 89.1712 108.927 88.6239C110.312 88.0729 111.81 87.7974 113.421 87.7974C115.456 87.7974 117.051 88.178 118.208 88.9356C119.364 89.6896 119.892 90.6357 119.792 91.7704C119.735 92.5969 119.33 93.2911 118.581 93.8511C117.836 94.4076 116.854 94.6269 115.635 94.5109C114.913 94.4347 114.406 94.2481 114.116 93.9526C113.829 93.659 113.665 93.3001 113.622 92.8796C113.582 92.4555 113.593 92.0223 113.65 91.5819C113.711 91.1378 113.747 90.7391 113.758 90.3856C113.767 90.034 113.668 89.7694 113.464 89.5954C113.263 89.4177 112.871 89.3887 112.289 89.5084C111.839 89.5863 111.425 89.9053 111.049 90.4654C110.671 91.0218 110.379 91.7377 110.174 92.6114C109.974 93.4868 109.902 94.4438 109.959 95.4824C110.035 97.0538 110.375 98.1776 110.977 98.8536C111.579 99.5315 112.384 99.8795 113.392 99.8976C114.304 99.8976 115.128 99.6547 115.865 99.1654C116.599 98.6724 117.155 97.9655 117.527 97.0411C117.775 96.3941 118.172 96.0986 118.717 96.1566C119.28 96.2346 119.427 96.617 119.154 97.3021C118.456 99.111 117.355 100.412 115.85 101.21C114.349 102.002 112.561 102.399 110.483 102.399Z" fill="#351A57"/>
<path d="M127.474 102.399C125.069 102.399 123.256 101.775 122.034 100.528C120.811 99.2814 120.373 97.4725 120.723 95.0981C120.956 93.5086 121.534 92.1691 122.457 91.0816C123.378 89.9905 124.532 89.1712 125.919 88.6239C127.304 88.0729 128.801 87.7974 130.412 87.7974C131.768 87.7974 132.917 87.9931 133.859 88.3846C134.8 88.7761 135.511 89.3036 135.995 89.9651C136.482 90.6231 136.726 91.3535 136.726 92.1546C136.726 93.0011 136.443 93.7242 135.88 94.3224C135.321 94.9169 134.608 95.4135 133.745 95.8086C132.879 96.2001 131.971 96.4901 131.021 96.6786C130.07 96.8635 129.197 96.9541 128.406 96.9541C127.922 96.9541 127.485 96.9251 127.094 96.8671C127.309 97.9456 127.696 98.7159 128.255 99.1799C128.818 99.6402 129.527 99.8795 130.384 99.8976C131.295 99.8976 132.12 99.6547 132.856 99.1654C133.591 98.6724 134.146 97.9655 134.519 97.0411C134.766 96.3941 135.164 96.0986 135.708 96.1566C136.271 96.2346 136.418 96.617 136.146 97.3021C135.447 99.111 134.347 100.412 132.842 101.21C131.34 102.002 129.552 102.399 127.474 102.399ZM129.28 89.5084C128.83 89.5863 128.422 89.8999 128.054 90.4509C127.685 90.9982 127.395 91.7033 127.18 92.5679C126.969 93.4288 126.883 94.3713 126.922 95.3954C127.347 95.4352 127.836 95.4244 128.391 95.3664C128.945 95.3047 129.463 95.1525 129.946 94.9096C130.434 94.6631 130.781 94.2934 130.993 93.8004C131.34 93.0572 131.476 92.3359 131.401 91.6399C131.324 90.9439 131.097 90.3856 130.72 89.9651C130.342 89.541 129.862 89.3887 129.28 89.5084Z" fill="#351A57"/>
<path d="M52.3892 101.358C50.3342 101.358 48.5497 101.123 47.0357 100.655C45.5254 100.182 44.3859 99.5241 43.6172 98.6831C42.8522 97.8385 42.5279 96.8633 42.6426 95.7613C42.7375 95.0182 43.0672 94.402 43.6316 93.9126C44.1942 93.4196 44.8535 93.193 45.6096 93.2311C46.2689 93.251 46.7867 93.4178 47.1647 93.7313C47.5464 94.0467 47.8563 94.44 48.0964 94.9131C48.3401 95.3825 48.573 95.8882 48.7987 96.4283C49.0227 96.9648 49.2879 97.4796 49.5942 97.9726C49.9042 98.462 50.3324 98.8843 50.8771 99.2413C51.4217 99.5948 52.1402 99.8195 53.0342 99.9156C54.0232 100.032 54.8904 99.9228 55.6357 99.5893C56.3811 99.2558 56.8702 98.7375 57.1049 98.0306C57.3199 97.4216 57.2267 96.8742 56.8254 96.3848C56.4277 95.8918 55.84 95.426 55.0624 94.9856C54.2884 94.547 53.4105 94.1065 52.4322 93.6661C51.4522 93.222 50.4775 92.7453 49.5082 92.2378C48.5372 91.7267 47.6539 91.1558 46.8566 90.5268C46.0629 89.8997 45.4627 89.1838 45.0577 88.3808C44.651 87.5743 44.5435 86.6408 44.7352 85.5823C44.9682 84.2048 45.5666 83.0485 46.5269 82.1096C47.4872 81.1671 48.7074 80.4475 50.1891 79.9491C51.6744 79.447 53.3102 79.206 55.0982 79.2241C56.9992 79.2241 58.6135 79.4561 59.9429 79.9201C61.2705 80.3805 62.2936 80.9623 63.0102 81.6673C63.7269 82.3742 64.1157 83.0883 64.1784 83.8133C64.2537 84.7377 64.01 85.4446 63.4474 85.9376C62.883 86.427 62.2434 86.6698 61.5267 86.6698C61.1003 86.6698 60.6829 86.581 60.2726 86.4016C59.7136 86.1515 59.2728 85.8143 58.9539 85.3938C58.6332 84.9697 58.3609 84.5075 58.1369 84.0091C57.9112 83.507 57.6729 83.0267 57.4202 82.5663C57.1712 82.1023 56.8415 81.7036 56.4312 81.3701C56.0245 81.0366 55.4727 80.8227 54.7757 80.7248C54.0197 80.6052 53.3281 80.6288 52.6974 80.7973C52.0667 80.9623 51.5507 81.2233 51.1494 81.5803C50.7517 81.9338 50.5259 82.3452 50.4686 82.8128C50.4112 83.3838 50.6334 83.8967 51.1351 84.3498C51.6403 84.7993 52.3194 85.2343 53.1704 85.6548C54.025 86.0753 54.9567 86.5031 55.9654 86.9381C56.9777 87.3695 57.9792 87.8353 58.9682 88.3373C59.9572 88.8358 60.8334 89.394 61.5984 90.0121C62.367 90.632 62.9404 91.3443 63.3184 92.1508C63.6947 92.9538 63.7663 93.8745 63.5334 94.9131C63.2414 96.267 62.5767 97.4252 61.5411 98.3858C60.5037 99.3483 59.1994 100.086 57.6281 100.597C56.055 101.105 54.3099 101.358 52.3892 101.358Z" fill="#C19EDD"/>
<path d="M64.0862 107.659C63.7744 107.659 63.606 107.492 63.5773 107.159C63.5487 106.825 63.6705 106.568 63.9428 106.39C64.1328 106.254 64.346 106.136 64.5807 106.035C64.853 105.919 65.0788 105.738 65.2615 105.491C65.4478 105.248 65.55 105 65.5697 104.744L68.1855 89.9109C68.2285 89.6753 68.1891 89.5176 68.0708 89.4396C67.9562 89.3581 67.7913 89.3164 67.5763 89.3164C67.3846 89.3164 67.1768 89.3309 66.9528 89.3599C66.7271 89.3889 66.5193 89.4034 66.3293 89.4034C66.1143 89.3853 65.9728 89.2838 65.9065 89.0989C65.8384 88.9104 65.8438 88.711 65.9208 88.4971C65.9961 88.2796 66.143 88.1238 66.358 88.0259C67.0926 87.6308 67.9221 87.3263 68.8448 87.1124C69.7658 86.8949 70.6437 86.7861 71.475 86.7861C71.7653 86.7861 72.0913 86.8006 72.4497 86.8296C72.808 86.8586 73.1377 86.9493 73.4387 87.0979C73.7397 87.2429 73.9403 87.4821 74.0407 87.8156C75.1623 87.2701 76.3358 86.9366 77.5595 86.8151C79.0932 86.6991 80.3724 86.9311 81.4008 87.5111C82.4275 88.0875 83.1531 88.9358 83.5795 90.0559C84.0095 91.1724 84.0883 92.5064 83.816 94.0579C83.5437 95.6094 82.9793 96.9506 82.1247 98.0816C81.2736 99.209 80.2416 100.061 79.0287 100.641C77.8139 101.215 76.5293 101.455 75.173 101.359C74.8039 101.319 74.4205 101.239 74.0192 101.119C73.6214 101.003 73.2308 100.848 72.8438 100.648L72.1487 104.773C72.0483 105.319 72.2221 105.749 72.6718 106.064C72.7471 106.107 72.8188 106.158 72.8868 106.216C72.9531 106.274 73.0266 106.332 73.109 106.39C73.2613 106.506 73.3186 106.662 73.281 106.861C73.2416 107.059 73.1538 107.24 73.0158 107.405C72.8815 107.574 72.7077 107.659 72.4927 107.659H64.0862ZM73.9188 94.3261C73.8615 96.4431 73.9332 97.8968 74.1338 98.6834C74.3381 99.4664 74.7806 99.7981 75.4597 99.6766C75.9076 99.6005 76.2516 99.3703 76.4917 98.9879C76.7353 98.6073 76.9002 98.0055 76.9862 97.1826C77.0758 96.3561 77.1116 95.2251 77.0937 93.7896C77.074 91.8466 76.9808 90.4891 76.8142 89.7151C76.6511 88.943 76.2301 88.6131 75.5528 88.7291C75.1031 88.7871 74.7663 89.0155 74.5423 89.4106C74.322 89.8021 74.1715 90.3894 74.0908 91.1724C74.0138 91.9554 73.9565 93.0066 73.9188 94.3261Z" fill="#C19EDD"/>
<path d="M88.9612 101.359C87.6426 101.359 86.5837 101.034 85.7864 100.387C84.9927 99.7399 84.6344 98.8681 84.7114 97.7698C84.8117 96.6877 85.1414 95.7941 85.7004 95.0873C86.263 94.3822 86.9653 93.8239 87.8074 93.4125C88.6531 92.9974 89.5417 92.7074 90.4734 92.5425C91.4051 92.3739 92.2794 92.2888 93.0964 92.2888C94.1606 92.2888 94.9669 92.3884 95.5116 92.586L95.6836 91.5855C95.8986 90.469 95.9219 89.6407 95.7552 89.0988C95.5922 88.5586 95.1909 88.2777 94.5512 88.2578C93.8095 88.2396 93.2989 88.4318 93.0176 88.8378C92.7399 89.2401 92.4657 89.7223 92.1934 90.2878C92.016 90.6611 91.6881 90.9511 91.2116 91.1578C90.7386 91.3662 90.2512 91.4695 89.7496 91.4695C89.1476 91.4695 88.6119 91.3281 88.1442 91.0418C87.6802 90.7572 87.5171 90.3385 87.6569 89.7875C87.8665 88.8885 88.6549 88.1599 90.0219 87.598C91.3925 87.0379 93.1054 86.7679 95.1604 86.786C96.6546 86.786 97.9733 86.9781 99.1164 87.3588C100.263 87.7412 101.111 88.3647 101.661 89.2293C102.214 90.0956 102.365 91.2339 102.112 92.644C101.94 93.6644 101.764 94.6359 101.589 95.5585C101.417 96.4829 101.281 97.2387 101.18 97.8278C101.026 98.7703 101.173 99.2705 101.618 99.3285C101.833 99.3484 102.044 99.2814 102.255 99.1255C102.47 98.966 102.666 98.9062 102.843 98.9443C103.015 98.9841 103.076 99.1309 103.029 99.3865C102.981 99.6439 102.793 99.923 102.463 100.228C102.134 100.528 101.625 100.791 100.937 101.018C100.249 101.244 99.3493 101.348 98.2421 101.33C97.176 101.31 96.2856 101.085 95.5689 100.655C94.8522 100.22 94.4831 99.5714 94.4652 98.705C93.8632 99.5714 93.0624 100.231 92.0644 100.684C91.0646 101.134 90.0309 101.359 88.9612 101.359ZM91.4624 96.0588C91.2707 96.7838 91.285 97.3891 91.5054 97.8713C91.7294 98.3498 92.1719 98.5799 92.8312 98.56C93.4906 98.5419 93.9707 98.2537 94.2717 97.6973C94.5727 97.1372 94.8021 96.472 94.9597 95.7035L95.2464 94.0868C95.1496 94.0487 94.9848 93.9961 94.7519 93.9273C94.5172 93.8548 94.2574 93.8185 93.9707 93.8185C93.5013 93.8185 93.0247 93.9617 92.5374 94.2463C92.0536 94.5326 91.6953 95.1362 91.4624 96.0588Z" fill="#C19EDD"/>
<path d="M111.511 101.358C109.107 101.358 107.293 100.735 106.071 99.4878C104.848 98.2408 104.411 96.432 104.76 94.0576C104.993 92.468 105.572 91.1286 106.494 90.0411C107.415 88.95 108.569 88.1307 109.956 87.5833C111.341 87.0323 112.839 86.7568 114.449 86.7568C116.485 86.7568 118.079 87.1375 119.237 87.8951C120.392 88.6491 120.921 89.5952 120.82 90.7298C120.763 91.5563 120.358 92.2505 119.609 92.8106C118.864 93.367 117.882 93.5863 116.664 93.4703C115.942 93.3942 115.435 93.2075 115.144 92.9121C114.858 92.6185 114.693 92.2596 114.65 91.8391C114.611 91.415 114.621 90.9818 114.679 90.5413C114.74 90.0973 114.775 89.6985 114.786 89.3451C114.795 88.9935 114.697 88.7288 114.492 88.5548C114.292 88.3772 113.899 88.3482 113.317 88.4678C112.867 88.5458 112.453 88.8648 112.077 89.4248C111.699 89.9813 111.407 90.6972 111.203 91.5708C111.002 92.4463 110.93 93.4033 110.988 94.4418C111.063 96.0133 111.403 97.137 112.005 97.8131C112.607 98.491 113.412 98.839 114.421 98.8571C115.333 98.8571 116.157 98.6142 116.893 98.1248C117.628 97.6318 118.183 96.925 118.556 96.0006C118.803 95.3535 119.201 95.0581 119.745 95.1161C120.308 95.194 120.455 95.5765 120.183 96.2616C119.484 98.0705 118.384 99.3718 116.879 100.169C115.377 100.961 113.589 101.358 111.511 101.358Z" fill="#C19EDD"/>
<path d="M128.502 101.358C126.098 101.358 124.285 100.735 123.063 99.4878C121.839 98.2408 121.402 96.432 121.751 94.0576C121.984 92.468 122.563 91.1286 123.485 90.0411C124.406 88.95 125.56 88.1307 126.947 87.5833C128.332 87.0323 129.83 86.7568 131.44 86.7568C132.797 86.7568 133.945 86.9526 134.888 87.3441C135.828 87.7356 136.54 88.263 137.023 88.9246C137.511 89.5825 137.754 90.313 137.754 91.1141C137.754 91.9605 137.471 92.6837 136.909 93.2818C136.35 93.8763 135.637 94.373 134.773 94.7681C133.908 95.1596 132.999 95.4496 132.05 95.6381C131.098 95.823 130.226 95.9136 129.434 95.9136C128.95 95.9136 128.513 95.8846 128.122 95.8266C128.337 96.905 128.724 97.6753 129.283 98.1393C129.846 98.5997 130.555 98.839 131.412 98.8571C132.324 98.8571 133.148 98.6142 133.884 98.1248C134.619 97.6318 135.174 96.925 135.547 96.0006C135.794 95.3535 136.192 95.0581 136.737 95.1161C137.299 95.194 137.446 95.5765 137.174 96.2616C136.475 98.0705 135.375 99.3718 133.87 100.169C132.369 100.961 130.58 101.358 128.502 101.358ZM130.308 88.4678C129.858 88.5458 129.45 88.8593 129.083 89.4103C128.714 89.9577 128.423 90.6628 128.208 91.5273C127.997 92.3883 127.911 93.3308 127.95 94.3548C128.375 94.3947 128.864 94.3838 129.419 94.3258C129.973 94.2642 130.491 94.112 130.975 93.8691C131.462 93.6226 131.81 93.2528 132.021 92.7598C132.369 92.0167 132.505 91.2953 132.429 90.5993C132.352 89.9033 132.125 89.3451 131.749 88.9246C131.371 88.5005 130.89 88.3482 130.308 88.4678Z" fill="#C19EDD"/>
<mask id="mask3_1_10789" style="mask-type:luminance" maskUnits="userSpaceOnUse" x="108" y="64" width="17" height="17">
<path d="M108.771 64.2368H124.827V80.4804H108.771V64.2368Z" fill="white"/>
</mask>
<g mask="url(#mask3_1_10789)">
<path d="M124.832 72.3623C124.832 72.6269 124.819 72.8933 124.794 73.1579C124.767 73.4226 124.73 73.6854 124.678 73.9464C124.626 74.2074 124.563 74.4648 124.486 74.7203C124.409 74.9741 124.321 75.2242 124.221 75.4707C124.121 75.7172 124.008 75.9564 123.884 76.1921C123.761 76.4259 123.624 76.6543 123.479 76.8754C123.332 77.0965 123.176 77.3104 123.01 77.5152C122.843 77.7218 122.666 77.9176 122.48 78.1061C122.293 78.2946 122.1 78.4722 121.895 78.6408C121.693 78.8111 121.482 78.9688 121.263 79.1156C121.044 79.2643 120.819 79.4002 120.588 79.5271C120.355 79.6521 120.118 79.7645 119.874 79.8678C119.633 79.9693 119.384 80.0581 119.133 80.1361C118.882 80.2122 118.626 80.2774 118.368 80.33C118.11 80.3808 117.85 80.4206 117.588 80.446C117.327 80.4732 117.065 80.4859 116.802 80.4859C116.538 80.4859 116.277 80.4732 116.015 80.446C115.752 80.4206 115.492 80.3808 115.234 80.33C114.976 80.2774 114.722 80.2122 114.471 80.1361C114.218 80.0581 113.971 79.9693 113.729 79.8678C113.485 79.7645 113.247 79.6521 113.016 79.5271C112.785 79.4002 112.559 79.2643 112.34 79.1156C112.122 78.9688 111.91 78.8111 111.706 78.6408C111.504 78.4722 111.308 78.2946 111.122 78.1061C110.938 77.9176 110.76 77.7218 110.594 77.5152C110.427 77.3104 110.271 77.0965 110.124 76.8754C109.979 76.6543 109.843 76.4259 109.719 76.1921C109.596 75.9564 109.483 75.7172 109.382 75.4707C109.282 75.2242 109.193 74.9741 109.117 74.7203C109.04 74.4648 108.976 74.2074 108.926 73.9464C108.874 73.6854 108.836 73.4226 108.809 73.1579C108.784 72.8933 108.771 72.6269 108.771 72.3623C108.771 72.0958 108.784 71.8294 108.809 71.5648C108.836 71.3001 108.874 71.0373 108.926 70.7763C108.976 70.5153 109.04 70.2579 109.117 70.0042C109.193 69.7486 109.282 69.4985 109.382 69.252C109.483 69.0073 109.596 68.7663 109.719 68.5324C109.843 68.2968 109.979 68.0703 110.124 67.8473C110.271 67.6262 110.427 67.4141 110.594 67.2075C110.76 67.0027 110.938 66.8051 111.122 66.6166C111.308 66.4281 111.504 66.2505 111.706 66.0819C111.91 65.9134 112.122 65.7539 112.34 65.6071C112.559 65.4584 112.785 65.3225 113.016 65.1974C113.247 65.0706 113.485 64.9582 113.729 64.8567C113.971 64.7534 114.218 64.6646 114.471 64.5866C114.722 64.5105 114.976 64.4453 115.234 64.3945C115.492 64.3419 115.752 64.3021 116.015 64.2767C116.277 64.2513 116.538 64.2368 116.802 64.2368C117.065 64.2368 117.327 64.2513 117.588 64.2767C117.85 64.3021 118.11 64.3419 118.368 64.3945C118.626 64.4453 118.882 64.5105 119.133 64.5866C119.384 64.6646 119.633 64.7534 119.874 64.8567C120.118 64.9582 120.355 65.0706 120.588 65.1974C120.819 65.3225 121.044 65.4584 121.263 65.6071C121.482 65.7539 121.693 65.9134 121.895 66.0819C122.1 66.2505 122.293 66.4281 122.48 66.6166C122.666 66.8051 122.843 67.0027 123.01 67.2075C123.176 67.4141 123.332 67.6262 123.479 67.8473C123.624 68.0703 123.761 68.2968 123.884 68.5324C124.008 68.7663 124.121 69.0073 124.221 69.252C124.321 69.4985 124.409 69.7486 124.486 70.0042C124.563 70.2579 124.626 70.5153 124.678 70.7763C124.73 71.0373 124.767 71.3001 124.794 71.5648C124.819 71.8294 124.832 72.0958 124.832 72.3623Z" fill="#341A55"/>
</g>
<path d="M115.842 70.6241C115.842 70.9032 115.824 71.1714 115.784 71.4306C115.747 71.688 115.693 71.9164 115.623 72.1139C115.553 72.3115 115.472 72.4637 115.379 72.5707C115.288 72.6776 115.193 72.732 115.093 72.732C114.994 72.732 114.899 72.6776 114.806 72.5707C114.715 72.4637 114.634 72.3115 114.564 72.1139C114.494 71.9164 114.44 71.688 114.401 71.4306C114.363 71.1714 114.344 70.9032 114.344 70.6241C114.344 70.3449 114.363 70.0749 114.401 69.8175C114.44 69.5583 114.494 69.3317 114.564 69.1342C114.634 68.9366 114.715 68.7844 114.806 68.6774C114.899 68.5705 114.994 68.5161 115.093 68.5161C115.193 68.5161 115.288 68.5705 115.379 68.6774C115.472 68.7844 115.553 68.9366 115.623 69.1342C115.693 69.3317 115.747 69.5583 115.784 69.8175C115.824 70.0749 115.842 70.3449 115.842 70.6241Z" fill="#341A55"/>
<path d="M119.259 70.6241C119.259 70.9032 119.241 71.1714 119.201 71.4306C119.164 71.688 119.11 71.9164 119.04 72.1139C118.97 72.3115 118.889 72.4637 118.796 72.5707C118.705 72.6776 118.61 72.732 118.51 72.732C118.411 72.732 118.316 72.6776 118.223 72.5707C118.132 72.4637 118.051 72.3115 117.981 72.1139C117.911 71.9164 117.857 71.688 117.818 71.4306C117.78 71.1714 117.761 70.9032 117.761 70.6241C117.761 70.3449 117.78 70.0749 117.818 69.8175C117.857 69.5583 117.911 69.3317 117.981 69.1342C118.051 68.9366 118.132 68.7844 118.223 68.6774C118.316 68.5705 118.411 68.5161 118.51 68.5161C118.61 68.5161 118.705 68.5705 118.796 68.6774C118.889 68.7844 118.97 68.9366 119.04 69.1342C119.11 69.3317 119.164 69.5583 119.201 69.8175C119.241 70.0749 119.259 70.3449 119.259 70.6241Z" fill="#341A55"/>
<path d="M121.679 73.4915C121.111 73.4734 120.928 73.1 120.919 73.0783C120.867 72.9623 120.733 72.9097 120.616 72.9605C120.498 73.0112 120.446 73.149 120.496 73.2668C120.503 73.2813 120.587 73.468 120.795 73.6438C120.399 74.2474 118.964 76.1668 116.71 76.1668C114.458 76.1668 113.136 74.1839 112.779 73.5659C112.89 73.4789 113 73.3683 113.104 73.2197C113.177 73.1145 113.152 72.9677 113.046 72.8934C112.942 72.8209 112.799 72.8445 112.726 72.9496C112.398 73.4209 111.989 73.3683 111.968 73.3665C111.844 73.3447 111.724 73.4317 111.703 73.5568C111.681 73.6837 111.765 73.8051 111.891 73.8269C111.898 73.8287 111.944 73.8359 112.02 73.8359C112.106 73.8359 112.228 73.825 112.367 73.7834C112.745 74.4558 114.168 76.6344 116.71 76.6344C119.253 76.6344 120.79 74.5174 121.2 73.8758C121.333 73.9211 121.485 73.9537 121.664 73.9592C121.666 73.9592 121.67 73.9592 121.67 73.9592C121.795 73.9592 121.897 73.8595 121.901 73.7326C121.904 73.6039 121.806 73.4952 121.679 73.4915Z" fill="#341A55"/>
<mask id="mask4_1_10789" style="mask-type:luminance" maskUnits="userSpaceOnUse" x="109" y="63" width="17" height="17">
<path d="M109.653 63.5752H125.71V79.817H109.653V63.5752Z" fill="white"/>
</mask>
<g mask="url(#mask4_1_10789)">
<path d="M125.716 71.6988C125.716 71.9653 125.701 72.2299 125.676 72.4945C125.651 72.7591 125.612 73.0219 125.56 73.2829C125.51 73.5439 125.445 73.8031 125.37 74.0569C125.293 74.3106 125.205 74.5626 125.103 74.8073C125.003 75.0538 124.891 75.293 124.766 75.5286C124.642 75.7624 124.508 75.9908 124.361 76.2119C124.216 76.4331 124.058 76.6469 123.892 76.8518C123.725 77.0584 123.549 77.2541 123.363 77.4426C123.177 77.6311 122.982 77.8106 122.779 77.9791C122.575 78.1477 122.365 78.3054 122.147 78.454C121.926 78.6008 121.702 78.7386 121.469 78.8636C121.238 78.9887 121 79.1029 120.758 79.2044C120.514 79.3059 120.267 79.3947 120.015 79.4726C119.764 79.5506 119.509 79.614 119.251 79.6666C118.993 79.7191 118.733 79.7572 118.472 79.7844C118.21 79.8098 117.947 79.8224 117.684 79.8224C117.422 79.8224 117.159 79.8098 116.897 79.7844C116.635 79.7572 116.376 79.7191 116.118 79.6666C115.86 79.614 115.605 79.5506 115.353 79.4726C115.102 79.3947 114.855 79.3059 114.611 79.2044C114.367 79.1029 114.131 78.9887 113.898 78.8636C113.667 78.7386 113.441 78.6008 113.222 78.454C113.004 78.3054 112.792 78.1477 112.59 77.9791C112.386 77.8106 112.192 77.6311 112.006 77.4426C111.819 77.2541 111.644 77.0584 111.477 76.8518C111.309 76.6469 111.153 76.4331 111.008 76.2119C110.861 75.9908 110.727 75.7624 110.601 75.5286C110.477 75.293 110.365 75.0538 110.264 74.8073C110.164 74.5626 110.076 74.3106 109.999 74.0569C109.924 73.8031 109.859 73.5439 109.807 73.2829C109.757 73.0219 109.718 72.7591 109.693 72.4945C109.666 72.2299 109.653 71.9653 109.653 71.6988C109.653 71.4324 109.666 71.1678 109.693 70.9031C109.718 70.6367 109.757 70.3739 109.807 70.1129C109.859 69.8519 109.924 69.5945 109.999 69.3408C110.076 69.0852 110.164 68.8351 110.264 68.5904C110.365 68.3439 110.477 68.1028 110.601 67.869C110.727 67.6334 110.861 67.4068 111.008 67.1857C111.153 66.9646 111.309 66.7507 111.477 66.5441C111.644 66.3393 111.819 66.1417 112.006 65.9532C112.192 65.7665 112.386 65.5871 112.59 65.4185C112.792 65.2499 113.004 65.0923 113.222 64.9436C113.441 64.795 113.667 64.6591 113.898 64.534C114.131 64.4089 114.367 64.2948 114.611 64.1933C114.855 64.0918 115.102 64.0011 115.353 63.925C115.605 63.8471 115.86 63.7818 116.118 63.7311C116.376 63.6785 116.635 63.6404 116.897 63.6133C117.159 63.5879 117.422 63.5752 117.684 63.5752C117.947 63.5752 118.21 63.5879 118.472 63.6133C118.733 63.6404 118.993 63.6785 119.251 63.7311C119.509 63.7818 119.764 63.8471 120.015 63.925C120.267 64.0011 120.514 64.0918 120.758 64.1933C121 64.2948 121.238 64.4089 121.469 64.534C121.702 64.6591 121.926 64.795 122.147 64.9436C122.365 65.0923 122.575 65.2499 122.779 65.4185C122.982 65.5871 123.177 65.7665 123.363 65.9532C123.549 66.1417 123.725 66.3393 123.892 66.5441C124.058 66.7507 124.216 66.9646 124.361 67.1857C124.508 67.4068 124.642 67.6334 124.766 67.869C124.891 68.1028 125.003 68.3439 125.103 68.5904C125.205 68.8351 125.293 69.0852 125.37 69.3408C125.445 69.5945 125.51 69.8519 125.56 70.1129C125.612 70.3739 125.651 70.6367 125.676 70.9031C125.701 71.1678 125.716 71.4324 125.716 71.6988Z" fill="#FF8FCD"/>
</g>
<path d="M116.725 69.9605C116.725 70.2396 116.706 70.5097 116.668 70.767C116.63 71.0262 116.577 71.2528 116.505 71.4504C116.435 71.6479 116.354 71.8002 116.263 71.9071C116.172 72.014 116.075 72.0684 115.976 72.0684C115.876 72.0684 115.781 72.014 115.69 71.9071C115.598 71.8002 115.518 71.6479 115.446 71.4504C115.376 71.2528 115.322 71.0262 115.285 70.767C115.247 70.5097 115.228 70.2396 115.228 69.9605C115.228 69.6814 115.247 69.4131 115.285 69.1539C115.322 68.8965 115.376 68.6682 115.446 68.4706C115.518 68.273 115.598 68.1208 115.69 68.0139C115.781 67.9069 115.876 67.8525 115.976 67.8525C116.075 67.8525 116.172 67.9069 116.263 68.0139C116.354 68.1208 116.435 68.273 116.505 68.4706C116.577 68.6682 116.63 68.8965 116.668 69.1539C116.706 69.4131 116.725 69.6814 116.725 69.9605Z" fill="#1E1B1C"/>
<path d="M120.141 69.9605C120.141 70.2396 120.122 70.5097 120.084 70.767C120.046 71.0262 119.993 71.2528 119.921 71.4504C119.851 71.6479 119.771 71.8002 119.679 71.9071C119.588 72.014 119.491 72.0684 119.392 72.0684C119.292 72.0684 119.197 72.014 119.106 71.9071C119.014 71.8002 118.934 71.6479 118.862 71.4504C118.792 71.2528 118.739 71.0262 118.701 70.767C118.663 70.5097 118.644 70.2396 118.644 69.9605C118.644 69.6814 118.663 69.4131 118.701 69.1539C118.739 68.8965 118.792 68.6682 118.862 68.4706C118.934 68.273 119.014 68.1208 119.106 68.0139C119.197 67.9069 119.292 67.8525 119.392 67.8525C119.491 67.8525 119.588 67.9069 119.679 68.0139C119.771 68.1208 119.851 68.273 119.921 68.4706C119.993 68.6682 120.046 68.8965 120.084 69.1539C120.122 69.4131 120.141 69.6814 120.141 69.9605Z" fill="#1E1B1C"/>
<path d="M122.561 72.8279C121.994 72.8115 121.812 72.4364 121.801 72.4146C121.749 72.2986 121.615 72.246 121.498 72.2968C121.382 72.3475 121.328 72.4853 121.378 72.6031C121.385 72.6176 121.469 72.8043 121.677 72.9819C121.283 73.5855 119.846 75.5031 117.594 75.5031C115.34 75.5031 114.02 73.5202 113.661 72.9022C113.772 72.817 113.884 72.7046 113.986 72.556C114.059 72.4509 114.034 72.304 113.93 72.2297C113.826 72.1572 113.681 72.1826 113.608 72.2877C113.282 72.7572 112.873 72.7064 112.85 72.7028C112.728 72.681 112.608 72.768 112.586 72.8931C112.565 73.02 112.649 73.1414 112.774 73.1632C112.78 73.165 112.828 73.1722 112.902 73.1722C112.988 73.1722 113.11 73.1614 113.251 73.1197C113.629 73.7921 115.052 75.9707 117.594 75.9707C120.136 75.9707 121.674 73.8555 122.084 73.2121C122.215 73.2574 122.367 73.29 122.546 73.2955C122.55 73.2955 122.552 73.2955 122.553 73.2955C122.677 73.2955 122.779 73.1958 122.785 73.0689C122.788 72.9402 122.688 72.8333 122.561 72.8279Z" fill="#1E1B1C"/>
</svg>
