<svg width="165" height="176" viewBox="0 0 165 176" fill="none" xmlns="http://www.w3.org/2000/svg">
<path d="M46.078 82.52H53.61C54.6833 82.52 55.64 82.744 56.48 83.192C57.32 83.64 57.9827 84.2887 58.468 85.138C58.9627 85.978 59.21 86.9813 59.21 88.148C59.21 89.3147 59 90.2713 58.58 91.018C58.1693 91.7553 57.6747 92.3107 57.096 92.684C56.5173 93.048 55.9807 93.2673 55.486 93.342L59.98 101H55.276L51.272 93.664H50.264V101H46.078V82.52ZM50.264 90.766H52.112C52.8587 90.766 53.512 90.584 54.072 90.22C54.632 89.856 54.912 89.212 54.912 88.288C54.912 87.364 54.6367 86.7247 54.086 86.37C53.5353 86.006 52.8867 85.824 52.14 85.824H50.264V90.766ZM62.7323 82.52H74.5343V86.188H66.9043V89.954H74.4643V93.51H66.9043V97.332H74.5343V101H62.7323V82.52ZM87.4753 97.192C88.334 97.192 89.1133 97.066 89.8133 96.814C90.5227 96.562 91.05 96.3147 91.3953 96.072L93.1873 99.628C92.7487 100.001 91.9973 100.379 90.9333 100.762C89.8787 101.145 88.6233 101.336 87.1673 101.336C85.8047 101.336 84.526 101.098 83.3313 100.622C82.1367 100.146 81.082 99.4787 80.1673 98.62C79.262 97.752 78.548 96.7393 78.0253 95.582C77.512 94.4153 77.2553 93.1507 77.2553 91.788C77.2553 90.4253 77.512 89.1607 78.0253 87.994C78.5387 86.818 79.248 85.796 80.1533 84.928C81.068 84.06 82.1227 83.388 83.3173 82.912C84.5213 82.4267 85.8047 82.184 87.1673 82.184C88.6233 82.184 89.8787 82.3753 90.9333 82.758C91.9973 83.1407 92.7487 83.5187 93.1873 83.892L91.3953 87.448C91.05 87.196 90.5227 86.9487 89.8133 86.706C89.1133 86.454 88.334 86.328 87.4753 86.328C86.5233 86.328 85.6927 86.4773 84.9833 86.776C84.274 87.0653 83.6813 87.4667 83.2053 87.98C82.7293 88.4933 82.3747 89.072 82.1413 89.716C81.908 90.36 81.7913 91.0367 81.7913 91.746C81.7913 92.4647 81.908 93.1507 82.1413 93.804C82.3747 94.448 82.7293 95.0267 83.2053 95.54C83.6813 96.0533 84.274 96.4593 84.9833 96.758C85.6927 97.0473 86.5233 97.192 87.4753 97.192ZM95.7362 82.52H107.538V86.188H99.9082V89.954H107.468V93.51H99.9082V97.332H107.538V101H95.7362V82.52ZM114.571 86.356L114.879 86.412V101H110.693V82.52H116.405L123.895 97.08L123.587 97.136V82.52H127.773V101H122.033L114.571 86.356ZM134.372 86.188H129.962V82.52H142.954V86.188H138.558V101H134.372V86.188ZM54.772 129.316C54.772 130.576 54.534 131.659 54.058 132.564C53.5913 133.46 52.9193 134.146 52.042 134.622C51.174 135.098 50.1473 135.336 48.962 135.336C48.1033 135.336 47.3567 135.224 46.722 135C46.0873 134.785 45.5833 134.552 45.21 134.3C44.8367 134.039 44.608 133.843 44.524 133.712L46.092 130.086C46.204 130.245 46.3627 130.417 46.568 130.604C46.7733 130.791 47.0253 130.954 47.324 131.094C47.6227 131.225 47.9587 131.29 48.332 131.29C48.7613 131.29 49.144 131.201 49.48 131.024C49.816 130.847 50.082 130.553 50.278 130.142C50.4833 129.731 50.586 129.185 50.586 128.504V116.52H54.772V129.316ZM61.4124 125.746C61.4124 126.801 61.627 127.757 62.0564 128.616C62.495 129.465 63.097 130.142 63.8624 130.646C64.637 131.15 65.533 131.402 66.5504 131.402C67.5677 131.402 68.459 131.15 69.2244 130.646C69.999 130.142 70.601 129.465 71.0304 128.616C71.469 127.757 71.6884 126.801 71.6884 125.746C71.6884 124.691 71.469 123.739 71.0304 122.89C70.601 122.041 69.999 121.364 69.2244 120.86C68.459 120.347 67.5677 120.09 66.5504 120.09C65.533 120.09 64.637 120.347 63.8624 120.86C63.097 121.364 62.495 122.041 62.0564 122.89C61.627 123.739 61.4124 124.691 61.4124 125.746ZM57.0584 125.746C57.0584 124.402 57.2964 123.151 57.7724 121.994C58.2484 120.827 58.9157 119.81 59.7744 118.942C60.633 118.074 61.641 117.397 62.7984 116.912C63.9557 116.427 65.2064 116.184 66.5504 116.184C67.913 116.184 69.1684 116.427 70.3164 116.912C71.4737 117.397 72.477 118.074 73.3264 118.942C74.185 119.81 74.8477 120.827 75.3144 121.994C75.7904 123.151 76.0284 124.402 76.0284 125.746C76.0284 127.099 75.7997 128.359 75.3424 129.526C74.885 130.683 74.2317 131.701 73.3824 132.578C72.533 133.446 71.5297 134.123 70.3724 134.608C69.215 135.093 67.941 135.336 66.5504 135.336C65.1317 135.336 63.839 135.093 62.6724 134.608C61.515 134.123 60.5164 133.446 59.6764 132.578C58.8364 131.701 58.1877 130.683 57.7304 129.526C57.2824 128.359 57.0584 127.099 57.0584 125.746ZM89.1096 116.52H93.2956V127.874C93.2956 129.395 92.997 130.716 92.3996 131.836C91.8023 132.947 90.9483 133.81 89.8376 134.426C88.727 135.033 87.4016 135.336 85.8616 135.336C84.3123 135.336 82.9776 135.033 81.8576 134.426C80.7376 133.81 79.879 132.947 79.2816 131.836C78.6936 130.716 78.3996 129.395 78.3996 127.874V116.52H82.5716V127.65C82.5716 128.49 82.7023 129.199 82.9636 129.778C83.2343 130.357 83.617 130.795 84.1116 131.094C84.6063 131.383 85.1896 131.528 85.8616 131.528C86.5243 131.528 87.0983 131.383 87.5836 131.094C88.069 130.795 88.4423 130.357 88.7036 129.778C88.9743 129.199 89.1096 128.49 89.1096 127.65V116.52ZM96.1718 116.52H103.704C104.777 116.52 105.734 116.744 106.574 117.192C107.414 117.64 108.076 118.289 108.562 119.138C109.056 119.978 109.304 120.981 109.304 122.148C109.304 123.315 109.094 124.271 108.674 125.018C108.263 125.755 107.768 126.311 107.19 126.684C106.611 127.048 106.074 127.267 105.58 127.342L110.074 135H105.37L101.366 127.664H100.358V135H96.1718V116.52ZM100.358 124.766H102.206C102.952 124.766 103.606 124.584 104.166 124.22C104.726 123.856 105.006 123.212 105.006 122.288C105.006 121.364 104.73 120.725 104.18 120.37C103.629 120.006 102.98 119.824 102.234 119.824H100.358V124.766ZM116.704 120.356L117.012 120.412V135H112.826V116.52H118.538L126.028 131.08L125.72 131.136V116.52H129.906V135H124.166L116.704 120.356ZM139.052 116.52H143.21L150.504 135H146.038L144.694 131.29H137.582L136.224 135H131.744L139.052 116.52ZM138.982 127.622H143.308L141.166 121.56H141.124L138.982 127.622ZM152.094 116.52H156.28V131.332H162.986V135H152.094V116.52Z" fill="#562A88"/>
<mask id="mask0_137_4911" style="mask-type:luminance" maskUnits="userSpaceOnUse" x="0" y="0" width="130" height="176">
<path d="M9.15527e-05 0H129.944V175.703H9.15527e-05V0Z" fill="white"/>
</mask>
<g mask="url(#mask0_137_4911)">
<path fill-rule="evenodd" clip-rule="evenodd" d="M87.2091 175.537C102.586 175.537 117.027 172.501 129.572 167.162C120.937 169.362 111.704 170.544 102.105 170.544C53.9927 170.544 14.9886 140.789 14.9886 104.078C14.9886 79.1139 33.0447 57.3626 59.744 45.9943C25.0887 54.7727 0.0950623 79.6962 0.0950623 109.092C0.0950623 145.786 39.0992 175.537 87.2091 175.537ZM85.5945 34.968V34.4298C66.3865 34.4298 64.9941 29.2094 64.9941 -0.0947266H64.6728C64.6728 29.2094 63.2704 34.4298 44.0623 34.4298V34.968C63.2704 34.968 64.6728 40.1748 64.6728 69.479H64.9941C64.9941 40.1748 66.3865 34.968 85.5945 34.968Z" fill="#633796"/>
</g>
</svg>
