<svg width="132" height="153" viewBox="0 0 132 153" fill="none" xmlns="http://www.w3.org/2000/svg">
<g filter="url(#filter0_di_118_4900)">
<path d="M107.26 65.7123C107.26 42.6752 88.6218 24 65.6301 24C42.6385 24 24 42.6752 24 65.7123V87.2877C24 110.325 42.6385 129 65.6301 129C88.6218 129 107.26 110.325 107.26 87.2877V65.7123Z" fill="url(#paint0_radial_118_4900)"/>
<path style="mix-blend-mode:overlay" d="M107.26 65.7123C107.26 42.6752 88.6218 24 65.6301 24C42.6385 24 24 42.6752 24 65.7123V87.2877C24 110.325 42.6385 129 65.6301 129C88.6218 129 107.26 110.325 107.26 87.2877V65.7123Z" fill="url(#paint1_radial_118_4900)"/>
</g>
<mask id="mask0_118_4900" style="mask-type:alpha" maskUnits="userSpaceOnUse" x="32" y="44" width="33" height="28">
<path fill-rule="evenodd" clip-rule="evenodd" d="M44.0171 44.8555H32.6133V71.9527C36.2932 67.2756 41.9987 64.2733 48.404 64.2733C54.8093 64.2733 60.5148 67.2756 64.1948 71.9527V44.8555H56.3798C54.5158 45.7764 52.4177 46.2938 50.1984 46.2938C47.9791 46.2938 45.8811 45.7764 44.0171 44.8555Z" fill="white"/>
</mask>
<g mask="url(#mask0_118_4900)">
<g filter="url(#filter1_i_118_4900)">
<path d="M50.1985 76.4991C57.9285 76.4991 64.1948 70.2204 64.1948 62.4751C64.1948 54.7299 57.9285 48.4512 50.1985 48.4512C42.4685 48.4512 36.2021 54.7299 36.2021 62.4751C36.2021 70.2204 42.4685 76.4991 50.1985 76.4991Z" fill="url(#paint2_radial_118_4900)"/>
</g>
<path d="M48.0453 70.7454C51.8112 70.7454 54.864 67.6866 54.864 63.9132C54.864 60.1399 51.8112 57.0811 48.0453 57.0811C44.2794 57.0811 41.2266 60.1399 41.2266 63.9132C41.2266 67.6866 44.2794 70.7454 48.0453 70.7454Z" fill="#29262A"/>
<g style="mix-blend-mode:color-dodge">
<path d="M43.3798 61.3961C44.5691 61.3961 45.5331 60.4302 45.5331 59.2386C45.5331 58.047 44.5691 57.0811 43.3798 57.0811C42.1906 57.0811 41.2266 58.047 41.2266 59.2386C41.2266 60.4302 42.1906 61.3961 43.3798 61.3961Z" fill="#D9D9D9"/>
</g>
</g>
<path d="M42.662 66.4313C40.737 67.0329 38.9713 67.9268 38.016 68.5051C37.6887 68.7029 37.2336 68.5821 37.0793 68.2321C36.9831 68.0136 37.0312 67.7583 37.1999 67.5895L37.6226 67.1656C37.6327 67.1556 37.6442 67.1471 37.6564 67.1403L39.356 66.2231C41.2904 65.1796 43.458 64.6533 45.6379 64.3772C46.6032 64.2548 47.5873 64.0996 48.4809 63.9365C50.4361 63.5799 52.3346 64.6692 54.3156 64.8203C54.8187 64.8586 55.5379 64.8909 56.6584 64.9929C60.6061 65.3525 60.9054 64.6646 62.4005 66.4313C62.6675 66.7472 62.9079 67.2023 63.0931 67.6131C63.3579 68.1996 63.1907 68.8756 62.7364 69.3307C62.1327 69.9356 61.1788 69.9951 60.4754 69.5112C56.5909 66.8412 53.0236 65.8132 49.4808 65.7121C45.8223 65.6076 45.0601 65.6819 42.662 66.4313Z" fill="#9EEDF0"/>
<path d="M42.662 66.4313C40.737 67.0329 38.9713 67.9268 38.016 68.5051C37.6887 68.7029 37.2336 68.5821 37.0793 68.2321C36.9831 68.0136 37.0312 67.7583 37.1999 67.5895L37.6226 67.1656C37.6327 67.1556 37.6442 67.1471 37.6564 67.1403L39.356 66.2231C41.2904 65.1796 43.458 64.6533 45.6379 64.3772C46.6032 64.2548 47.5873 64.0996 48.4809 63.9365C50.4361 63.5799 52.3346 64.6692 54.3156 64.8203C54.8187 64.8586 55.5379 64.8909 56.6584 64.9929C60.6061 65.3525 60.9054 64.6646 62.4005 66.4313C62.6675 66.7472 62.9079 67.2023 63.0931 67.6131C63.3579 68.1996 63.1907 68.8756 62.7364 69.3307C62.1327 69.9356 61.1788 69.9951 60.4754 69.5112C56.5909 66.8412 53.0236 65.8132 49.4808 65.7121C45.8223 65.6076 45.0601 65.6819 42.662 66.4313Z" fill="url(#paint3_radial_118_4900)" fill-opacity="0.2"/>
<mask id="mask1_118_4900" style="mask-type:alpha" maskUnits="userSpaceOnUse" x="67" y="44" width="32" height="28">
<path fill-rule="evenodd" clip-rule="evenodd" d="M78.4692 44.8555H67.0654V71.9527C70.7454 67.2756 76.4509 64.2733 82.8562 64.2733C89.2615 64.2733 94.967 67.2756 98.6469 71.9527V44.8555H90.8319C88.9679 45.7764 86.8699 46.2938 84.6506 46.2938C82.4313 46.2938 80.3332 45.7764 78.4692 44.8555Z" fill="white"/>
</mask>
<g mask="url(#mask1_118_4900)">
<g filter="url(#filter2_i_118_4900)">
<path d="M81.0618 76.4991C88.7917 76.4991 95.0581 70.2204 95.0581 62.4751C95.0581 54.7299 88.7917 48.4512 81.0618 48.4512C73.3318 48.4512 67.0654 54.7299 67.0654 62.4751C67.0654 70.2204 73.3318 76.4991 81.0618 76.4991Z" fill="url(#paint4_radial_118_4900)"/>
</g>
<path d="M83.2152 70.7454C86.9811 70.7454 90.0339 67.6866 90.0339 63.9132C90.0339 60.1399 86.9811 57.0811 83.2152 57.0811C79.4493 57.0811 76.3965 60.1399 76.3965 63.9132C76.3965 67.6866 79.4493 70.7454 83.2152 70.7454Z" fill="#29262A"/>
<g style="mix-blend-mode:color-dodge">
<path d="M78.5498 61.3961C79.739 61.3961 80.7031 60.4302 80.7031 59.2386C80.7031 58.047 79.739 57.0811 78.5498 57.0811C77.3605 57.0811 76.3965 58.047 76.3965 59.2386C76.3965 60.4302 77.3605 61.3961 78.5498 61.3961Z" fill="#D9D9D9"/>
</g>
</g>
<path d="M88.5982 66.431C90.5233 67.0326 92.289 67.9265 93.2443 68.5047C93.5716 68.7026 94.0267 68.5818 94.181 68.2317C94.2772 68.0133 94.2291 67.758 94.0604 67.5892L93.6376 67.1653C93.6276 67.1553 93.6161 67.1468 93.6039 67.14L91.9042 66.2228C89.9699 65.1793 87.8022 64.653 85.6224 64.3769C84.657 64.2545 83.673 64.0993 82.7794 63.9362C80.8242 63.5796 78.7376 64.2889 76.7889 64.6758C75.9039 64.8515 75.1539 64.8084 74.6019 64.9926C73.5253 65.3522 71.7309 65.3522 69.9364 66.7906C69.5008 67.1399 68.9502 67.8348 68.5749 68.3418C68.3093 68.6999 68.3215 69.1875 68.5885 69.5443C68.9359 70.0084 69.5934 70.0981 70.0671 69.7649C74.1339 66.9058 78.1261 65.8161 81.7795 65.7118C85.4379 65.6073 86.2002 65.6816 88.5982 66.431Z" fill="#9EEDF0"/>
<path d="M88.5982 66.431C90.5233 67.0326 92.289 67.9265 93.2443 68.5047C93.5716 68.7026 94.0267 68.5818 94.181 68.2317C94.2772 68.0133 94.2291 67.758 94.0604 67.5892L93.6376 67.1653C93.6276 67.1553 93.6161 67.1468 93.6039 67.14L91.9042 66.2228C89.9699 65.1793 87.8022 64.653 85.6224 64.3769C84.657 64.2545 83.673 64.0993 82.7794 63.9362C80.8242 63.5796 78.7376 64.2889 76.7889 64.6758C75.9039 64.8515 75.1539 64.8084 74.6019 64.9926C73.5253 65.3522 71.7309 65.3522 69.9364 66.7906C69.5008 67.1399 68.9502 67.8348 68.5749 68.3418C68.3093 68.6999 68.3215 69.1875 68.5885 69.5443C68.9359 70.0084 69.5934 70.0981 70.0671 69.7649C74.1339 66.9058 78.1261 65.8161 81.7795 65.7118C85.4379 65.6073 86.2002 65.6816 88.5982 66.431Z" fill="url(#paint5_radial_118_4900)" fill-opacity="0.2"/>
<g filter="url(#filter3_f_118_4900)">
<path d="M38.3553 85.1304C43.1122 85.1304 46.9685 81.2665 46.9685 76.5003C46.9685 71.734 43.1122 67.8701 38.3553 67.8701C33.5984 67.8701 29.7422 71.734 29.7422 76.5003C29.7422 81.2665 33.5984 85.1304 38.3553 85.1304Z" fill="#8DAAFF"/>
</g>
<g filter="url(#filter4_f_118_4900)">
<path d="M92.9051 85.1304C97.662 85.1304 101.518 81.2665 101.518 76.5003C101.518 71.734 97.662 67.8701 92.9051 67.8701C88.1482 67.8701 84.292 71.734 84.292 76.5003C84.292 81.2665 88.1482 85.1304 92.9051 85.1304Z" fill="#8DAAFF"/>
</g>
<g opacity="0.3">
<g filter="url(#filter5_f_118_4900)">
<path d="M90.7519 73.6238C91.5447 73.6238 92.1875 72.9798 92.1875 72.1854C92.1875 71.391 91.5447 70.7471 90.7519 70.7471C89.9591 70.7471 89.3164 71.391 89.3164 72.1854C89.3164 72.9798 89.9591 73.6238 90.7519 73.6238Z" fill="white"/>
</g>
<g filter="url(#filter6_f_118_4900)">
<path d="M96.4941 77.2195C97.2869 77.2195 97.9296 76.5755 97.9296 75.7811C97.9296 74.9867 97.2869 74.3428 96.4941 74.3428C95.7013 74.3428 95.0586 74.9867 95.0586 75.7811C95.0586 76.5755 95.7013 77.2195 96.4941 77.2195Z" fill="white"/>
</g>
<g filter="url(#filter7_f_118_4900)">
<path d="M92.1875 81.5349C92.9803 81.5349 93.623 80.8909 93.623 80.0966C93.623 79.3022 92.9803 78.6582 92.1875 78.6582C91.3947 78.6582 90.752 79.3022 90.752 80.0966C90.752 80.8909 91.3947 81.5349 92.1875 81.5349Z" fill="white"/>
</g>
</g>
<g opacity="0.3">
<g filter="url(#filter8_f_118_4900)">
<path d="M40.5088 73.6238C41.3016 73.6238 41.9443 72.9798 41.9443 72.1854C41.9443 71.391 41.3016 70.7471 40.5088 70.7471C39.7159 70.7471 39.0732 71.391 39.0732 72.1854C39.0732 72.9798 39.7159 73.6238 40.5088 73.6238Z" fill="white"/>
</g>
<g filter="url(#filter9_f_118_4900)">
<path d="M34.7666 77.2195C35.5594 77.2195 36.2021 76.5755 36.2021 75.7811C36.2021 74.9867 35.5594 74.3428 34.7666 74.3428C33.9738 74.3428 33.3311 74.9867 33.3311 75.7811C33.3311 76.5755 33.9738 77.2195 34.7666 77.2195Z" fill="white"/>
</g>
<g filter="url(#filter10_f_118_4900)">
<path d="M39.791 81.5349C40.5838 81.5349 41.2265 80.8909 41.2265 80.0966C41.2265 79.3022 40.5838 78.6582 39.791 78.6582C38.9982 78.6582 38.3555 79.3022 38.3555 80.0966C38.3555 80.8909 38.9982 81.5349 39.791 81.5349Z" fill="white"/>
</g>
</g>
<mask id="mask2_118_4900" style="mask-type:luminance" maskUnits="userSpaceOnUse" x="33" y="75" width="65" height="25">
<path d="M97.9296 75.0615H33.3311V99.5136H97.9296V75.0615Z" fill="white"/>
</mask>
<g mask="url(#mask2_118_4900)">
<mask id="mask3_118_4900" style="mask-type:alpha" maskUnits="userSpaceOnUse" x="33" y="75" width="65" height="25">
<path d="M85.7276 75.0615H45.533C38.794 75.0615 33.3311 80.5353 33.3311 87.2876C33.3311 94.0398 38.794 99.5136 45.533 99.5136H85.7276C92.4666 99.5136 97.9296 94.0398 97.9296 87.2876C97.9296 80.5353 92.4666 75.0615 85.7276 75.0615Z" fill="url(#paint6_linear_118_4900)"/>
</mask>
<g mask="url(#mask3_118_4900)">
<path d="M44.0967 88.3662C55.2471 74.7738 76.0119 74.7738 87.1623 88.3662" stroke="#29282B" stroke-width="2" stroke-linecap="round"/>
<path d="M40.8672 88.3662C41.0459 90.6971 43.416 92.1973 45.5936 91.358L45.8915 91.2429" stroke="#29282B" stroke-width="2" stroke-linecap="round"/>
<path d="M85.0098 91.9623L85.4512 92.045C88.1371 92.5499 90.5767 90.3816 90.3973 87.6494" stroke="#29282B" stroke-width="2" stroke-linecap="round"/>
</g>
</g>
<path d="M39.791 47.3729H40.6193C44.6668 47.3729 48.5298 45.6782 51.2752 42.6982" stroke="#29282B" stroke-width="3" stroke-linecap="round"/>
<path d="M79.2676 43.418L79.3889 43.5036C83.2059 46.2037 87.964 47.2129 92.5462 46.2947" stroke="#29282B" stroke-width="3" stroke-linecap="round"/>
<defs>
<filter id="filter0_di_118_4900" x="0" y="0" width="131.261" height="153" filterUnits="userSpaceOnUse" color-interpolation-filters="sRGB">
<feFlood flood-opacity="0" result="BackgroundImageFix"/>
<feColorMatrix in="SourceAlpha" type="matrix" values="0 0 0 0 0 0 0 0 0 0 0 0 0 0 0 0 0 0 127 0" result="hardAlpha"/>
<feOffset/>
<feGaussianBlur stdDeviation="12"/>
<feComposite in2="hardAlpha" operator="out"/>
<feColorMatrix type="matrix" values="0 0 0 0 0.207843 0 0 0 0 0.419608 0 0 0 0 0.980392 0 0 0 0.5 0"/>
<feBlend mode="normal" in2="BackgroundImageFix" result="effect1_dropShadow_118_4900"/>
<feBlend mode="normal" in="SourceGraphic" in2="effect1_dropShadow_118_4900" result="shape"/>
<feColorMatrix in="SourceAlpha" type="matrix" values="0 0 0 0 0 0 0 0 0 0 0 0 0 0 0 0 0 0 127 0" result="hardAlpha"/>
<feOffset dx="-10" dy="-10"/>
<feGaussianBlur stdDeviation="6"/>
<feComposite in2="hardAlpha" operator="arithmetic" k2="-1" k3="1"/>
<feColorMatrix type="matrix" values="0 0 0 0 0.180392 0 0 0 0 0.164706 0 0 0 0 0.168627 0 0 0 1 0"/>
<feBlend mode="soft-light" in2="shape" result="effect2_innerShadow_118_4900"/>
</filter>
<filter id="filter1_i_118_4900" x="36.2021" y="44.4512" width="29.9932" height="32.0479" filterUnits="userSpaceOnUse" color-interpolation-filters="sRGB">
<feFlood flood-opacity="0" result="BackgroundImageFix"/>
<feBlend mode="normal" in="SourceGraphic" in2="BackgroundImageFix" result="shape"/>
<feColorMatrix in="SourceAlpha" type="matrix" values="0 0 0 0 0 0 0 0 0 0 0 0 0 0 0 0 0 0 127 0" result="hardAlpha"/>
<feOffset dx="2" dy="-4"/>
<feGaussianBlur stdDeviation="2"/>
<feComposite in2="hardAlpha" operator="arithmetic" k2="-1" k3="1"/>
<feColorMatrix type="matrix" values="0 0 0 0 0 0 0 0 0 0 0 0 0 0 0 0 0 0 0.1 0"/>
<feBlend mode="normal" in2="shape" result="effect1_innerShadow_118_4900"/>
</filter>
<filter id="filter2_i_118_4900" x="65.0654" y="44.4512" width="29.9932" height="32.0479" filterUnits="userSpaceOnUse" color-interpolation-filters="sRGB">
<feFlood flood-opacity="0" result="BackgroundImageFix"/>
<feBlend mode="normal" in="SourceGraphic" in2="BackgroundImageFix" result="shape"/>
<feColorMatrix in="SourceAlpha" type="matrix" values="0 0 0 0 0 0 0 0 0 0 0 0 0 0 0 0 0 0 127 0" result="hardAlpha"/>
<feOffset dx="-2" dy="-4"/>
<feGaussianBlur stdDeviation="2"/>
<feComposite in2="hardAlpha" operator="arithmetic" k2="-1" k3="1"/>
<feColorMatrix type="matrix" values="0 0 0 0 0 0 0 0 0 0 0 0 0 0 0 0 0 0 0.1 0"/>
<feBlend mode="normal" in2="shape" result="effect1_innerShadow_118_4900"/>
</filter>
<filter id="filter3_f_118_4900" x="17.7422" y="55.8701" width="41.2266" height="41.2607" filterUnits="userSpaceOnUse" color-interpolation-filters="sRGB">
<feFlood flood-opacity="0" result="BackgroundImageFix"/>
<feBlend mode="normal" in="SourceGraphic" in2="BackgroundImageFix" result="shape"/>
<feGaussianBlur stdDeviation="6" result="effect1_foregroundBlur_118_4900"/>
</filter>
<filter id="filter4_f_118_4900" x="72.292" y="55.8701" width="41.2266" height="41.2607" filterUnits="userSpaceOnUse" color-interpolation-filters="sRGB">
<feFlood flood-opacity="0" result="BackgroundImageFix"/>
<feBlend mode="normal" in="SourceGraphic" in2="BackgroundImageFix" result="shape"/>
<feGaussianBlur stdDeviation="6" result="effect1_foregroundBlur_118_4900"/>
</filter>
<filter id="filter5_f_118_4900" x="87.3164" y="68.7471" width="6.87109" height="6.87695" filterUnits="userSpaceOnUse" color-interpolation-filters="sRGB">
<feFlood flood-opacity="0" result="BackgroundImageFix"/>
<feBlend mode="normal" in="SourceGraphic" in2="BackgroundImageFix" result="shape"/>
<feGaussianBlur stdDeviation="1" result="effect1_foregroundBlur_118_4900"/>
</filter>
<filter id="filter6_f_118_4900" x="93.0586" y="72.3428" width="6.87109" height="6.87695" filterUnits="userSpaceOnUse" color-interpolation-filters="sRGB">
<feFlood flood-opacity="0" result="BackgroundImageFix"/>
<feBlend mode="normal" in="SourceGraphic" in2="BackgroundImageFix" result="shape"/>
<feGaussianBlur stdDeviation="1" result="effect1_foregroundBlur_118_4900"/>
</filter>
<filter id="filter7_f_118_4900" x="88.752" y="76.6582" width="6.87109" height="6.87695" filterUnits="userSpaceOnUse" color-interpolation-filters="sRGB">
<feFlood flood-opacity="0" result="BackgroundImageFix"/>
<feBlend mode="normal" in="SourceGraphic" in2="BackgroundImageFix" result="shape"/>
<feGaussianBlur stdDeviation="1" result="effect1_foregroundBlur_118_4900"/>
</filter>
<filter id="filter8_f_118_4900" x="37.0732" y="68.7471" width="6.87109" height="6.87695" filterUnits="userSpaceOnUse" color-interpolation-filters="sRGB">
<feFlood flood-opacity="0" result="BackgroundImageFix"/>
<feBlend mode="normal" in="SourceGraphic" in2="BackgroundImageFix" result="shape"/>
<feGaussianBlur stdDeviation="1" result="effect1_foregroundBlur_118_4900"/>
</filter>
<filter id="filter9_f_118_4900" x="31.3311" y="72.3428" width="6.87109" height="6.87695" filterUnits="userSpaceOnUse" color-interpolation-filters="sRGB">
<feFlood flood-opacity="0" result="BackgroundImageFix"/>
<feBlend mode="normal" in="SourceGraphic" in2="BackgroundImageFix" result="shape"/>
<feGaussianBlur stdDeviation="1" result="effect1_foregroundBlur_118_4900"/>
</filter>
<filter id="filter10_f_118_4900" x="36.3555" y="76.6582" width="6.87109" height="6.87695" filterUnits="userSpaceOnUse" color-interpolation-filters="sRGB">
<feFlood flood-opacity="0" result="BackgroundImageFix"/>
<feBlend mode="normal" in="SourceGraphic" in2="BackgroundImageFix" result="shape"/>
<feGaussianBlur stdDeviation="1" result="effect1_foregroundBlur_118_4900"/>
</filter>
<radialGradient id="paint0_radial_118_4900" cx="0" cy="0" r="1" gradientUnits="userSpaceOnUse" gradientTransform="translate(65.6301 76.5) rotate(90) scale(52.5 41.6301)">
<stop stop-color="#4373FE"/>
<stop offset="1" stop-color="#356BFA"/>
</radialGradient>
<radialGradient id="paint1_radial_118_4900" cx="0" cy="0" r="1" gradientUnits="userSpaceOnUse" gradientTransform="translate(65.6301 129) rotate(90) scale(14.5833 11.5639)">
<stop stop-color="#300303" stop-opacity="0.916667"/>
<stop offset="1" stop-color="#E07676" stop-opacity="0"/>
</radialGradient>
<radialGradient id="paint2_radial_118_4900" cx="0" cy="0" r="1" gradientUnits="userSpaceOnUse" gradientTransform="translate(50.1985 62.4751) rotate(90) scale(14.024 13.9963)">
<stop offset="0.71875" stop-color="white"/>
<stop offset="1" stop-color="#DEF7FF"/>
</radialGradient>
<radialGradient id="paint3_radial_118_4900" cx="0" cy="0" r="1" gradientUnits="userSpaceOnUse" gradientTransform="translate(62.4005 69.308) rotate(-139.343) scale(6.62297 24.7172)">
<stop stop-color="#00A0A6"/>
<stop offset="1" stop-opacity="0"/>
</radialGradient>
<radialGradient id="paint4_radial_118_4900" cx="0" cy="0" r="1" gradientUnits="userSpaceOnUse" gradientTransform="translate(81.0618 62.4751) rotate(90) scale(14.024 13.9963)">
<stop offset="0.71875" stop-color="white"/>
<stop offset="1" stop-color="#DEF7FF"/>
</radialGradient>
<radialGradient id="paint5_radial_118_4900" cx="0" cy="0" r="1" gradientUnits="userSpaceOnUse" gradientTransform="translate(69.1677 69.2771) rotate(-40.9864) scale(6.5691 24.6173)">
<stop stop-color="#00A0A6"/>
<stop offset="1" stop-opacity="0"/>
</radialGradient>
<linearGradient id="paint6_linear_118_4900" x1="65.6303" y1="72.5444" x2="65.6303" y2="99.5136" gradientUnits="userSpaceOnUse">
<stop offset="0.0181248" stop-color="#DEF7FF"/>
<stop offset="0.233521" stop-color="white"/>
</linearGradient>
</defs>
</svg>
